<svg width="456" height="457" viewBox="0 0 456 457" fill="none" xmlns="http://www.w3.org/2000/svg">
<path d="M207.07 445.158C207.057 445.158 207.057 445.158 207.043 445.158L162.473 436.417C162.432 436.403 162.391 436.376 162.378 436.335C162.364 436.294 162.364 436.253 162.391 436.212L164.649 432.456L124.472 420.423H124.458C124.458 420.423 124.472 420.423 124.458 420.423C124.458 420.423 124.445 420.423 124.445 420.409L74.7026 383.804C74.7026 383.804 74.7162 383.804 74.7026 383.804L34.0877 329.402C34.0603 329.361 34.0467 329.307 34.074 329.252C34.1014 329.211 34.1425 329.184 34.1972 329.184L44.2825 329.525L14.6014 276.544C14.5877 276.517 14.5877 276.489 14.5877 276.476C14.5877 276.462 14.5877 276.462 14.5877 276.448L45.8562 170.253L10.2771 208.333C10.2361 208.374 10.1677 208.388 10.1129 208.361C10.0582 208.333 10.0308 208.265 10.0445 208.21L21.7856 154.915C21.7856 154.901 21.7993 154.887 21.7993 154.874L73.0741 72.1306C73.0741 72.1169 73.0878 72.1169 73.0878 72.1033C73.0878 72.1033 73.1015 72.1033 73.1015 72.0896L125.485 35.3209C125.498 35.3209 125.498 35.3072 125.512 35.3072L185.518 13.6858H185.531C185.545 13.6858 185.545 13.6858 185.559 13.6858L256.087 11.8556H256.101H256.115L309.497 23.998H309.51C309.51 23.998 309.524 23.998 309.524 24.0117L346.294 44.9365C346.307 44.9365 346.307 44.9502 346.321 44.9502L387.976 79.9569C387.99 79.9706 387.99 79.9706 388.003 79.9842L422.748 130.056C422.748 130.07 422.761 130.07 422.761 130.084C422.761 130.084 422.761 130.084 422.761 130.097L434.489 160.037C434.516 160.091 434.489 160.173 434.434 160.201C434.379 160.242 434.311 160.228 434.256 160.173L422.679 147.567L422.556 171.073L440.688 179.336C440.729 179.35 440.756 179.391 440.77 179.445L445.942 217.594C445.942 217.607 445.942 217.621 445.942 217.635V217.648L432.176 275.588L439.962 279.795C440.017 279.822 440.044 279.904 440.017 279.958L417.958 335.357C417.958 335.371 417.944 335.371 417.944 335.385L379.04 386.058C379.026 386.071 379.026 386.071 379.013 386.085L332.746 419.398C332.733 419.412 332.733 419.412 332.719 419.412L282.074 439.476C282.005 439.504 281.937 439.476 281.909 439.408L277.257 430.776L258.249 434.668L255.102 444.503C255.088 444.557 255.034 444.598 254.979 444.598L207.07 445.158ZM257.935 434.737L208.493 444.871L254.869 444.339L257.935 434.737ZM165.06 432.292L206.906 444.83L201.446 408.949L176.965 412.487L165.06 432.292ZM260.904 400.427L207.577 444.776L258.044 434.436L265.94 409.769L260.904 400.427ZM201.72 408.908L207.166 444.762L260.48 400.427L201.72 408.908ZM162.72 436.184L204.347 444.352L164.909 432.538L162.72 436.184ZM277.53 430.721L282.087 439.176L331.173 419.726L277.53 430.721ZM266.118 410.11L258.345 434.382L277.12 430.53L266.118 410.11ZM125.115 420.327L164.786 432.21L176.623 412.542L159.011 415.082L125.115 420.327ZM266.227 409.742L277.394 430.475L332.076 419.275L268.581 402.393L266.227 409.742ZM115.345 398.897L124.582 420.136L158.45 414.891L115.345 398.897ZM75.6194 384.146L124.171 419.876L114.989 398.76L75.6194 384.146ZM268.677 402.134L332.418 419.07L318.652 393.379L269.58 399.307L268.677 402.134ZM339.479 390.866L332.897 418.961L378.452 386.167L339.479 390.866ZM318.939 393.351L332.637 418.906L339.192 390.907L318.939 393.351ZM147.886 357.908L159.107 414.795L176.814 412.241L196.834 378.969L147.886 357.908ZM115.194 398.542L158.806 414.727L147.571 357.771L85.9236 331.246L115.194 398.542ZM196.93 379.297L177.143 412.186L201.391 408.69L196.93 379.297ZM261.205 400.44L266.049 409.427L268.321 402.339L261.205 400.44ZM197.177 379.106L201.665 408.649L260.343 400.167L197.177 379.106ZM261.67 400.276L268.417 402.066L269.279 399.361L261.67 400.276ZM288.231 340.165L261.178 400.058L269.375 399.061L288.231 340.165ZM197.382 378.887L260.617 399.976L236.382 361.541L197.382 378.887ZM236.642 361.418L260.918 399.935L288.806 338.212L236.642 361.418ZM289.121 338.28L269.676 399.02L318.515 393.119L289.121 338.28ZM74.9078 383.599L114.825 398.419L85.7047 331.451L74.9078 383.599ZM289.408 338.267L318.788 393.092L339.246 390.62L344.597 367.755L289.408 338.267ZM344.857 367.892L339.547 390.579L378.52 385.867L344.857 367.892ZM344.925 367.619L378.807 385.73L376.426 336.272L352.137 336.778L344.925 367.619ZM376.7 336.272L379.054 385.293L397.391 335.849L376.7 336.272ZM397.692 335.835L379.396 385.156L417.575 335.426L397.692 335.835ZM44.7067 329.757L74.5247 382.985L67.5046 330.509L44.7067 329.757ZM67.7783 330.536L74.7847 382.875L85.4994 331.123L67.7783 330.536ZM34.4298 329.416L73.6215 381.919L44.3919 329.744L34.4298 329.416ZM147.817 357.58L196.917 378.709L209.465 318.981L141.523 325.646L147.817 357.58ZM209.698 319.186L197.204 378.668L236.245 361.295L209.698 319.186ZM289.614 338.062L344.679 367.496L351.877 336.792L289.614 338.062ZM209.93 319.035L236.491 361.186L288.656 337.98L209.93 319.035ZM86.211 331.069L147.516 357.443L141.249 325.66L86.211 331.069ZM372.157 250.128L289.408 337.789L351.932 336.505L372.157 250.128ZM209.834 318.735L288.875 337.748L252.762 228.725L209.834 318.735ZM252.995 228.521L289.08 337.474L318.337 240.158L252.995 228.521ZM318.597 240.212L289.381 337.42L372.13 249.759L318.597 240.212ZM372.321 250.647L352.219 336.491L376.426 335.986L372.321 250.647ZM372.567 250.279L376.686 335.999L397.5 335.576L405.875 313.012L372.567 250.279ZM406.053 313.326L397.801 335.562L417.63 335.152L406.053 313.326ZM406.176 312.985L417.753 334.797L421.721 271.108L406.176 312.985ZM422.036 270.397L418.095 333.705L431.875 275.711L422.036 270.397ZM432.121 275.847L418.423 333.5L439.743 279.958L432.121 275.847ZM67.7373 330.249L85.2394 330.836L65.8078 315.908L67.7373 330.249ZM126.128 248.995L85.8963 330.823L141.194 325.4L126.128 248.995ZM65.7667 315.525L85.5131 330.713L83.1457 259.471L59.0615 265.48L65.7667 315.525ZM83.4194 259.389L85.7868 330.44L125.936 248.776L83.4194 259.389ZM44.5562 329.484L67.4636 330.249L65.5067 315.675L15.1214 276.94L44.5562 329.484ZM126.388 248.926L141.468 325.373L209.301 318.721L126.388 248.926ZM126.497 248.653L209.588 318.598L252.557 228.521L126.497 248.653ZM14.9845 276.489L65.4657 315.293L58.8015 265.549L14.9845 276.489ZM372.704 249.937L405.998 312.657L421.735 270.247L372.704 249.937ZM46.0477 170.322L14.875 276.23L58.7604 265.262L46.0477 170.322ZM422.091 270.124L431.943 275.438L445.368 218.946L422.091 270.124ZM372.759 249.664L421.776 269.974L422.009 228.152L372.759 249.664ZM422.282 228.042L422.05 269.551L445.559 217.881L422.282 228.042ZM46.2941 170.048L59.0341 265.207L83.1457 259.184L81.3257 204.563L46.2941 170.048ZM81.5994 204.837L83.4057 259.116L125.909 248.503L81.5994 204.837ZM318.679 239.953L372.13 249.473L334.101 188.638L318.679 239.953ZM408.229 164.831L372.663 249.404L421.995 227.851L422.31 171.237L408.229 164.831ZM349.427 138.033L372.444 249.213L407.982 164.722L349.427 138.033ZM334.211 188.296L372.13 248.954L349.222 138.361L334.211 188.296ZM214.159 169.652L126.621 248.366L252.57 228.247L214.159 169.652ZM81.5857 204.441L126.06 248.271L132.56 161.894L80.0531 158.671L81.5857 204.441ZM132.847 161.881L126.347 248.243L214.008 169.42L203.772 153.808L132.847 161.881ZM253.09 228.261L318.405 239.898L333.909 188.337L319.746 165.678L253.09 228.261ZM287.41 113.953L253.077 227.906L319.596 165.446L287.41 113.953ZM235.917 150.093L252.817 227.81L287.123 113.967L235.917 150.093ZM422.583 171.373L422.269 227.742L445.669 217.525L440.523 179.555L422.583 171.373ZM214.364 169.461L252.502 227.66L235.684 150.298L214.364 169.461ZM22.0182 155.079L10.414 207.773L45.9793 169.598L49.5372 156.772L22.0182 155.079ZM46.2667 169.639L81.2984 204.154L79.7794 158.63L53.4236 157.005L46.2667 169.639ZM319.952 165.486L334.019 187.982L348.976 138.238L319.952 165.486ZM408.338 164.571L422.31 170.936L422.433 147.252L417.753 142.158L408.338 164.571ZM204.073 153.781L214.2 169.243L235.342 150.23L204.073 153.781ZM49.8246 156.8L46.5404 168.642L53.1362 157.005L49.8246 156.8ZM287.698 113.898L319.801 165.254L348.99 137.855L287.698 113.898ZM349.756 137.883L408.092 164.462L417.561 141.939L408.215 131.764L349.756 137.883ZM80.0531 158.384L132.327 161.594L78.5478 113.065L80.0531 158.384ZM171.984 105.293L132.997 161.58L203.608 153.549L171.984 105.293ZM78.7257 112.847L132.56 161.43L129.59 108.667L78.7257 112.847ZM129.864 108.653L132.833 161.348L171.71 105.211L129.864 108.653ZM422.72 147.157L434.01 159.436L422.816 130.835L422.72 147.157ZM53.5878 156.745L79.7794 158.357L78.2741 113.229L53.5878 156.745ZM49.893 156.527L53.273 156.731L77.9457 113.243L57.7341 128.349L49.893 156.527ZM22.2919 154.833L49.6193 156.513L57.3646 128.622L22.2919 154.833ZM72.8004 73.0867L22.4014 154.396L57.4878 128.185L72.8004 73.0867ZM172.476 105.567L203.909 153.522L235.397 149.943L172.476 105.567ZM220.727 108.804L235.835 149.807L286.973 113.721L220.727 108.804ZM172.463 105.225L235.479 149.67L220.412 108.79L172.463 105.225ZM417.876 141.885L422.447 146.856L422.529 130.808L417.876 141.885ZM408.557 131.736L417.671 141.666L422.46 130.289L408.557 131.736ZM376.55 97.2896L349.523 137.623L407.996 131.518L376.55 97.2896ZM287.616 113.571L349.085 137.582L338.726 62.4057L287.616 113.571ZM339 62.4467L349.332 137.432L376.358 97.0983L360.676 80.0389L339 62.4467ZM376.7 97.0574L408.324 131.49L422.337 130.029L378.452 94.4486L376.7 97.0574ZM378.602 94.2164L422.009 129.414L387.921 80.2984L378.602 94.2164ZM73.1425 72.8955L57.8436 127.926L78.2468 112.683L73.1425 72.8955ZM220.618 108.531L287.137 113.475L248.356 36.5638L207.618 73.2096L220.618 108.531ZM248.629 36.4955L287.328 113.243L305.063 41.5219L248.629 36.4955ZM305.337 41.5355L287.616 113.174L338.631 62.1052L324.043 43.2019L305.337 41.5355ZM127.017 63.0204L78.7531 112.573L129.576 108.394L127.017 63.0204ZM73.3478 72.3081L78.4794 112.328L106.464 66.4896L73.3478 72.3081ZM106.819 66.4213L79.1499 111.781L126.744 62.9111L106.819 66.4213ZM172.312 104.938L220.317 108.503L207.385 73.3872L172.312 104.938ZM127.291 63.034L129.85 108.367L171.669 104.925L127.291 63.034ZM127.346 62.7062L171.888 104.761L182.069 36.4955L143.493 49.198L127.346 62.7062ZM182.356 36.3999L172.175 104.692L207.289 73.114L192.524 33.0536L182.356 36.3999ZM362.126 81.1998L376.509 96.8525L378.246 94.271L362.126 81.1998ZM360.867 79.8203L378.397 94.0388L387.716 80.1208L347.717 65.5199L360.867 79.8203ZM347.32 65.0828L387.251 79.6564L346.321 45.2643L340.779 57.9667L347.32 65.0828ZM339.534 62.5287L359.403 78.6457L347.156 65.315L339.534 62.5287ZM192.784 32.9716L207.494 72.9228L248.123 36.3863L216.677 25.1043L192.784 32.9716ZM125.115 35.9219L74.032 71.7891L110.583 59.756L125.115 35.9219ZM110.35 60.1111L75.031 71.7345L106.655 66.1618L110.35 60.1111ZM110.761 59.9745L107.011 66.1072L126.99 62.597L126.538 54.7843L110.761 59.9745ZM339 62.0369L346.759 64.8643L340.656 58.2262L339 62.0369ZM126.812 54.6887L127.25 62.4194L142.782 49.4301L126.812 54.6887ZM324.426 43.2292L338.795 61.8457L340.464 58.0077L327.108 43.4614L324.426 43.2292ZM125.471 35.8809L110.979 59.6194L126.538 54.4975L125.471 35.8809ZM327.505 43.5024L340.587 57.7345L346.075 45.155L327.505 43.5024ZM125.717 35.5258L126.798 54.4155L143.356 48.9658L184.902 14.2049L125.717 35.5258ZM185.394 14.1366L144.054 48.7199L182.11 36.1951L185.394 14.1366ZM327.232 43.2019L345.664 44.8409L310.195 24.6536L327.232 43.2019ZM324.194 42.9424L326.821 43.1746L311.549 26.5521L324.194 42.9424ZM305.392 41.2624L323.811 42.9014L309.552 24.4078L305.392 41.2624ZM249.355 36.277L305.132 41.235L309.319 24.2848L249.355 36.277ZM217.101 24.9678L248.301 36.1541L255.909 12.1834L217.101 24.9678ZM256.21 12.1288L248.588 36.1404L308.84 24.0936L256.21 12.1288ZM185.641 14.3551L182.398 36.0994L192.428 32.7941L185.641 14.3551ZM185.805 14.0273L192.688 32.7121L216.252 24.9541L185.805 14.0273ZM186.311 13.918L216.677 24.8175L255.184 12.1424L186.311 13.918Z" fill="#EFEFEF"/>
<path d="M173.544 105.048C173.544 104.187 172.846 103.49 171.984 103.49C171.122 103.49 170.424 104.187 170.424 105.048C170.424 105.908 171.122 106.605 171.984 106.605C172.846 106.605 173.544 105.908 173.544 105.048Z" fill="#EFEFEF"/>
<path d="M424.239 130.125C424.239 129.264 423.541 128.568 422.679 128.568C421.817 128.568 421.119 129.264 421.119 130.125C421.119 130.985 421.817 131.682 422.679 131.682C423.541 131.682 424.239 130.985 424.239 130.125Z" fill="#EFEFEF"/>
<path d="M435.966 160.078C435.966 159.217 435.268 158.521 434.406 158.521C433.544 158.521 432.846 159.217 432.846 160.078C432.846 160.938 433.544 161.635 434.406 161.635C435.268 161.635 435.966 160.938 435.966 160.078Z" fill="#EFEFEF"/>
<path d="M311.058 24.1072C311.058 23.2468 310.36 22.5502 309.498 22.5502C308.635 22.5502 307.938 23.2468 307.938 24.1072C307.938 24.9677 308.635 25.6643 309.498 25.6643C310.36 25.6643 311.058 24.9677 311.058 24.1072Z" fill="#EFEFEF"/>
<path d="M257.675 11.9785C257.675 11.118 256.977 10.4214 256.115 10.4214C255.253 10.4214 254.555 11.118 254.555 11.9785C254.555 12.8389 255.253 13.5355 256.115 13.5355C256.977 13.5355 257.675 12.8389 257.675 11.9785Z" fill="#EFEFEF"/>
<path d="M74.7567 72.1988C74.7567 71.3383 74.0588 70.6417 73.1967 70.6417C72.3346 70.6417 71.6367 71.3383 71.6367 72.1988C71.6367 73.0593 72.3346 73.7559 73.1967 73.7559C74.0588 73.7559 74.7567 73.0593 74.7567 72.1988Z" fill="#EFEFEF"/>
<path d="M47.663 169.666C47.663 168.805 46.9651 168.109 46.103 168.109C45.2409 168.109 44.543 168.805 44.543 169.666C44.543 170.526 45.2409 171.223 46.103 171.223C46.9651 171.223 47.663 170.526 47.663 169.666Z" fill="#EFEFEF"/>
<path d="M79.9579 112.737C79.9579 111.877 79.26 111.18 78.3979 111.18C77.5358 111.18 76.8379 111.877 76.8379 112.737C76.8379 113.598 77.5358 114.294 78.3979 114.294C79.26 114.308 79.9579 113.598 79.9579 112.737Z" fill="#EFEFEF"/>
<path d="M87.2235 330.987C87.2235 330.126 86.5256 329.429 85.6635 329.429C84.8014 329.429 84.1035 330.126 84.1035 330.987C84.1035 331.847 84.8014 332.544 85.6635 332.544C86.5256 332.544 87.2235 331.847 87.2235 330.987Z" fill="#EFEFEF"/>
<path d="M198.571 378.901C198.571 378.04 197.873 377.344 197.011 377.344C196.149 377.344 195.451 378.04 195.451 378.901C195.451 379.761 196.149 380.458 197.011 380.458C197.873 380.458 198.571 379.761 198.571 378.901Z" fill="#EFEFEF"/>
<path d="M211.202 318.83C211.202 317.97 210.504 317.273 209.642 317.273C208.78 317.273 208.082 317.97 208.082 318.83C208.082 319.691 208.78 320.388 209.642 320.388C210.504 320.388 211.202 319.691 211.202 318.83Z" fill="#EFEFEF"/>
<path d="M87.2235 330.987C87.2235 330.126 86.5256 329.429 85.6635 329.429C84.8014 329.429 84.1035 330.126 84.1035 330.987C84.1035 331.847 84.8014 332.544 85.6635 332.544C86.5256 332.544 87.2235 331.847 87.2235 330.987Z" fill="#EFEFEF"/>
<path d="M127.743 248.571C127.743 247.711 127.045 247.014 126.183 247.014C125.321 247.014 124.623 247.711 124.623 248.571C124.623 249.432 125.321 250.128 126.183 250.128C127.045 250.128 127.743 249.432 127.743 248.571Z" fill="#EFEFEF"/>
<path d="M160.558 414.945C160.558 414.085 159.86 413.388 158.998 413.388C158.135 413.388 157.438 414.085 157.438 414.945C157.438 415.806 158.135 416.502 158.998 416.502C159.86 416.502 160.558 415.806 160.558 414.945Z" fill="#EFEFEF"/>
<path d="M262.505 400.221C262.505 399.361 261.807 398.664 260.945 398.664C260.083 398.664 259.385 399.361 259.385 400.221C259.385 401.082 260.083 401.779 260.945 401.779C261.807 401.779 262.505 401.082 262.505 400.221Z" fill="#EFEFEF"/>
<path d="M208.63 445.021C208.63 444.161 207.932 443.464 207.07 443.464C206.208 443.464 205.51 444.161 205.51 445.021C205.51 445.882 206.208 446.578 207.07 446.578C207.932 446.578 208.63 445.882 208.63 445.021Z" fill="#EFEFEF"/>
<path d="M198.571 378.901C198.571 378.04 197.873 377.344 197.011 377.344C196.149 377.344 195.451 378.04 195.451 378.901C195.451 379.761 196.149 380.458 197.011 380.458C197.873 380.458 198.571 379.761 198.571 378.901Z" fill="#EFEFEF"/>
<path d="M164.059 436.28C164.059 435.42 163.362 434.723 162.499 434.723C161.637 434.723 160.939 435.42 160.939 436.28C160.939 437.14 161.637 437.837 162.499 437.837C163.362 437.837 164.059 437.14 164.059 436.28Z" fill="#EFEFEF"/>
<path d="M208.63 445.021C208.63 444.161 207.932 443.464 207.07 443.464C206.208 443.464 205.51 444.161 205.51 445.021C205.51 445.882 206.208 446.578 207.07 446.578C207.932 446.578 208.63 445.882 208.63 445.021Z" fill="#EFEFEF"/>
<path d="M126.059 420.286C126.059 419.425 125.362 418.729 124.499 418.729C123.637 418.729 122.939 419.425 122.939 420.286C122.939 421.146 123.637 421.843 124.499 421.843C125.362 421.843 126.059 421.146 126.059 420.286Z" fill="#EFEFEF"/>
<path d="M160.558 414.945C160.558 414.085 159.86 413.388 158.998 413.388C158.135 413.388 157.438 414.085 157.438 414.945C157.438 415.806 158.135 416.502 158.998 416.502C159.86 416.502 160.558 415.806 160.558 414.945Z" fill="#EFEFEF"/>
<path d="M76.3173 383.681C76.3173 382.821 75.6194 382.124 74.7573 382.124C73.8952 382.124 73.1973 382.821 73.1973 383.681C73.1973 384.542 73.8952 385.238 74.7573 385.238C75.6194 385.238 76.3173 384.542 76.3173 383.681Z" fill="#EFEFEF"/>
<path d="M126.059 420.286C126.059 419.425 125.362 418.729 124.499 418.729C123.637 418.729 122.939 419.425 122.939 420.286C122.939 421.146 123.637 421.843 124.499 421.843C125.362 421.843 126.059 421.146 126.059 420.286Z" fill="#EFEFEF"/>
<path d="M87.2235 330.987C87.2235 330.126 86.5256 329.429 85.6635 329.429C84.8014 329.429 84.1035 330.126 84.1035 330.987C84.1035 331.847 84.8014 332.544 85.6635 332.544C86.5256 332.544 87.2235 331.847 87.2235 330.987Z" fill="#EFEFEF"/>
<path d="M76.3173 383.681C76.3173 382.821 75.6194 382.124 74.7573 382.124C73.8952 382.124 73.1973 382.821 73.1973 383.681C73.1973 384.542 73.8952 385.238 74.7573 385.238C75.6194 385.238 76.3173 384.542 76.3173 383.681Z" fill="#EFEFEF"/>
<path d="M35.702 329.279C35.702 328.419 35.0041 327.722 34.142 327.722C33.2799 327.722 32.582 328.419 32.582 329.279C32.582 330.14 33.2799 330.836 34.142 330.836C35.0041 330.836 35.702 330.14 35.702 329.279Z" fill="#EFEFEF"/>
<path d="M87.2235 330.987C87.2235 330.126 86.5256 329.429 85.6635 329.429C84.8014 329.429 84.1035 330.126 84.1035 330.987C84.1035 331.847 84.8014 332.544 85.6635 332.544C86.5256 332.544 87.2235 331.847 87.2235 330.987Z" fill="#EFEFEF"/>
<path d="M16.2431 276.421C16.2431 275.56 15.5452 274.864 14.6831 274.864C13.8209 274.864 13.123 275.56 13.123 276.421C13.123 277.281 13.8209 277.978 14.6831 277.978C15.5452 277.978 16.2431 277.281 16.2431 276.421Z" fill="#EFEFEF"/>
<path d="M76.3173 383.681C76.3173 382.821 75.6194 382.124 74.7573 382.124C73.8952 382.124 73.1973 382.821 73.1973 383.681C73.1973 384.542 73.8952 385.238 74.7573 385.238C75.6194 385.238 76.3173 384.542 76.3173 383.681Z" fill="#EFEFEF"/>
<path d="M47.663 169.666C47.663 168.805 46.9651 168.109 46.103 168.109C45.2409 168.109 44.543 168.805 44.543 169.666C44.543 170.526 45.2409 171.223 46.103 171.223C46.9651 171.223 47.663 170.526 47.663 169.666Z" fill="#EFEFEF"/>
<path d="M127.743 248.571C127.743 247.711 127.045 247.014 126.183 247.014C125.321 247.014 124.623 247.711 124.623 248.571C124.623 249.432 125.321 250.128 126.183 250.128C127.045 250.128 127.743 249.432 127.743 248.571Z" fill="#EFEFEF"/>
<path d="M16.2431 276.421C16.2431 275.56 15.5452 274.864 14.6831 274.864C13.8209 274.864 13.123 275.56 13.123 276.421C13.123 277.281 13.8209 277.978 14.6831 277.978C15.5452 277.978 16.2431 277.281 16.2431 276.421Z" fill="#EFEFEF"/>
<path d="M47.663 169.666C47.663 168.805 46.9651 168.109 46.103 168.109C45.2409 168.109 44.543 168.805 44.543 169.666C44.543 170.526 45.2409 171.223 46.103 171.223C46.9651 171.223 47.663 170.526 47.663 169.666Z" fill="#EFEFEF"/>
<path d="M11.7274 208.237C11.7274 207.377 11.0295 206.68 10.1674 206.68C9.30532 206.68 8.60742 207.377 8.60742 208.237C8.60742 209.098 9.30532 209.795 10.1674 209.795C11.0295 209.795 11.7274 209.098 11.7274 208.237Z" fill="#EFEFEF"/>
<path d="M23.4677 154.942C23.4677 154.082 22.7698 153.385 21.9077 153.385C21.0456 153.385 20.3477 154.082 20.3477 154.942C20.3477 155.803 21.0456 156.499 21.9077 156.499C22.7698 156.499 23.4677 155.803 23.4677 154.942Z" fill="#EFEFEF"/>
<path d="M134.27 161.758C134.27 160.897 133.573 160.201 132.71 160.201C131.848 160.201 131.15 160.897 131.15 161.758C131.15 162.618 131.848 163.315 132.71 163.315C133.573 163.315 134.27 162.618 134.27 161.758Z" fill="#EFEFEF"/>
<path d="M127.743 248.571C127.743 247.711 127.045 247.014 126.183 247.014C125.321 247.014 124.623 247.711 124.623 248.571C124.623 249.432 125.321 250.128 126.183 250.128C127.045 250.128 127.743 249.432 127.743 248.571Z" fill="#EFEFEF"/>
<path d="M211.202 318.83C211.202 317.97 210.504 317.273 209.642 317.273C208.78 317.273 208.082 317.97 208.082 318.83C208.082 319.691 208.78 320.388 209.642 320.388C210.504 320.388 211.202 319.691 211.202 318.83Z" fill="#EFEFEF"/>
<path d="M262.505 400.221C262.505 399.361 261.807 398.664 260.945 398.664C260.083 398.664 259.385 399.361 259.385 400.221C259.385 401.082 260.083 401.779 260.945 401.779C261.807 401.779 262.505 401.082 262.505 400.221Z" fill="#EFEFEF"/>
<path d="M198.571 378.901C198.571 378.04 197.873 377.344 197.011 377.344C196.149 377.344 195.451 378.04 195.451 378.901C195.451 379.761 196.149 380.458 197.011 380.458C197.873 380.458 198.571 379.761 198.571 378.901Z" fill="#EFEFEF"/>
<path d="M290.64 337.939C290.64 337.078 289.942 336.382 289.08 336.382C288.217 336.382 287.52 337.078 287.52 337.939C287.52 338.799 288.217 339.496 289.08 339.496C289.942 339.496 290.64 338.799 290.64 337.939Z" fill="#EFEFEF"/>
<path d="M211.202 318.83C211.202 317.97 210.504 317.273 209.642 317.273C208.78 317.273 208.082 317.97 208.082 318.83C208.082 319.691 208.78 320.388 209.642 320.388C210.504 320.388 211.202 319.691 211.202 318.83Z" fill="#EFEFEF"/>
<path d="M254.362 228.343C254.362 227.482 253.664 226.786 252.802 226.786C251.94 226.786 251.242 227.482 251.242 228.343C251.242 229.203 251.94 229.9 252.802 229.9C253.664 229.9 254.362 229.217 254.362 228.343Z" fill="#EFEFEF"/>
<path d="M127.743 248.571C127.743 247.711 127.045 247.014 126.183 247.014C125.321 247.014 124.623 247.711 124.623 248.571C124.623 249.432 125.321 250.128 126.183 250.128C127.045 250.128 127.743 249.432 127.743 248.571Z" fill="#EFEFEF"/>
<path d="M237.325 150.039C237.325 149.178 236.627 148.482 235.765 148.482C234.903 148.482 234.205 149.178 234.205 150.039C234.205 150.899 234.903 151.596 235.765 151.596C236.627 151.596 237.325 150.899 237.325 150.039Z" fill="#EFEFEF"/>
<path d="M134.27 161.758C134.27 160.897 133.573 160.201 132.71 160.201C131.848 160.201 131.15 160.897 131.15 161.758C131.15 162.618 131.848 163.315 132.71 163.315C133.573 163.315 134.27 162.618 134.27 161.758Z" fill="#EFEFEF"/>
<path d="M79.9579 112.737C79.9579 111.877 79.26 111.18 78.3979 111.18C77.5358 111.18 76.8379 111.877 76.8379 112.737C76.8379 113.598 77.5358 114.294 78.3979 114.294C79.26 114.308 79.9579 113.598 79.9579 112.737Z" fill="#EFEFEF"/>
<path d="M23.4677 154.942C23.4677 154.082 22.7698 153.385 21.9077 153.385C21.0456 153.385 20.3477 154.082 20.3477 154.942C20.3477 155.803 21.0456 156.499 21.9077 156.499C22.7698 156.499 23.4677 155.803 23.4677 154.942Z" fill="#EFEFEF"/>
<path d="M74.7567 72.1988C74.7567 71.3383 74.0588 70.6417 73.1967 70.6417C72.3346 70.6417 71.6367 71.3383 71.6367 72.1988C71.6367 73.0593 72.3346 73.7559 73.1967 73.7559C74.0588 73.7559 74.7567 73.0593 74.7567 72.1988Z" fill="#EFEFEF"/>
<path d="M79.9579 112.737C79.9579 111.877 79.26 111.18 78.3979 111.18C77.5358 111.18 76.8379 111.877 76.8379 112.737C76.8379 113.598 77.5358 114.294 78.3979 114.294C79.26 114.308 79.9579 113.598 79.9579 112.737Z" fill="#EFEFEF"/>
<path d="M173.544 105.048C173.544 104.187 172.846 103.49 171.984 103.49C171.122 103.49 170.424 104.187 170.424 105.048C170.424 105.908 171.122 106.605 171.984 106.605C172.846 106.605 173.544 105.908 173.544 105.048Z" fill="#EFEFEF"/>
<path d="M134.27 161.758C134.27 160.897 133.573 160.201 132.71 160.201C131.848 160.201 131.15 160.897 131.15 161.758C131.15 162.618 131.848 163.315 132.71 163.315C133.573 163.315 134.27 162.618 134.27 161.758Z" fill="#EFEFEF"/>
<path d="M128.7 62.7061C128.7 61.8456 128.002 61.149 127.14 61.149C126.278 61.149 125.58 61.8456 125.58 62.7061C125.58 63.5666 126.278 64.2632 127.14 64.2632C128.002 64.2632 128.7 63.5666 128.7 62.7061Z" fill="#EFEFEF"/>
<path d="M79.9579 112.737C79.9579 111.877 79.26 111.18 78.3979 111.18C77.5358 111.18 76.8379 111.877 76.8379 112.737C76.8379 113.598 77.5358 114.294 78.3979 114.294C79.26 114.308 79.9579 113.598 79.9579 112.737Z" fill="#EFEFEF"/>
<path d="M127.14 35.4301C127.14 34.5696 126.442 33.873 125.58 33.873C124.717 33.873 124.02 34.5696 124.02 35.4301C124.02 36.2906 124.717 36.9872 125.58 36.9872C126.442 36.9872 127.14 36.2906 127.14 35.4301Z" fill="#EFEFEF"/>
<path d="M74.7567 72.1988C74.7567 71.3383 74.0588 70.6417 73.1967 70.6417C72.3346 70.6417 71.6367 71.3383 71.6367 72.1988C71.6367 73.0593 72.3346 73.7559 73.1967 73.7559C74.0588 73.7559 74.7567 73.0593 74.7567 72.1988Z" fill="#EFEFEF"/>
<path d="M128.7 62.7061C128.7 61.8456 128.002 61.149 127.14 61.149C126.278 61.149 125.58 61.8456 125.58 62.7061C125.58 63.5666 126.278 64.2632 127.14 64.2632C128.002 64.2632 128.7 63.5666 128.7 62.7061Z" fill="#EFEFEF"/>
<path d="M127.14 35.4301C127.14 34.5696 126.442 33.873 125.58 33.873C124.717 33.873 124.02 34.5696 124.02 35.4301C124.02 36.2906 124.717 36.9872 125.58 36.9872C126.442 36.9872 127.14 36.2906 127.14 35.4301Z" fill="#EFEFEF"/>
<path d="M187.145 13.8087C187.145 12.9482 186.448 12.2516 185.585 12.2516C184.723 12.2516 184.025 12.9482 184.025 13.8087C184.025 14.6691 184.723 15.3657 185.585 15.3657C186.448 15.3657 187.145 14.6691 187.145 13.8087Z" fill="#EFEFEF"/>
<path d="M128.7 62.7061C128.7 61.8456 128.002 61.149 127.14 61.149C126.278 61.149 125.58 61.8456 125.58 62.7061C125.58 63.5666 126.278 64.2632 127.14 64.2632C128.002 64.2632 128.7 63.5666 128.7 62.7061Z" fill="#EFEFEF"/>
<path d="M173.544 105.048C173.544 104.187 172.846 103.49 171.984 103.49C171.122 103.49 170.424 104.187 170.424 105.048C170.424 105.908 171.122 106.605 171.984 106.605C172.846 106.605 173.544 105.908 173.544 105.048Z" fill="#EFEFEF"/>
<path d="M254.362 228.343C254.362 227.482 253.664 226.786 252.802 226.786C251.94 226.786 251.242 227.482 251.242 228.343C251.242 229.203 251.94 229.9 252.802 229.9C253.664 229.9 254.362 229.217 254.362 228.343Z" fill="#EFEFEF"/>
<path d="M290.64 337.939C290.64 337.078 289.942 336.382 289.08 336.382C288.217 336.382 287.52 337.078 287.52 337.939C287.52 338.799 288.217 339.496 289.08 339.496C289.942 339.496 290.64 338.799 290.64 337.939Z" fill="#EFEFEF"/>
<path d="M256.538 444.461C256.538 443.601 255.84 442.904 254.978 442.904C254.116 442.904 253.418 443.601 253.418 444.461C253.418 445.322 254.116 446.018 254.978 446.018C255.826 446.032 256.538 445.322 256.538 444.461Z" fill="#EFEFEF"/>
<path d="M208.63 445.021C208.63 444.161 207.932 443.464 207.07 443.464C206.208 443.464 205.51 444.161 205.51 445.021C205.51 445.882 206.208 446.578 207.07 446.578C207.932 446.578 208.63 445.882 208.63 445.021Z" fill="#EFEFEF"/>
<path d="M332.677 420.846C333.539 420.846 334.237 420.149 334.237 419.289C334.237 418.429 333.539 417.732 332.677 417.732C331.816 417.732 331.117 418.429 331.117 419.289C331.117 420.149 331.816 420.846 332.677 420.846Z" fill="#EFEFEF"/>
<path d="M290.64 337.939C290.64 337.078 289.942 336.382 289.08 336.382C288.217 336.382 287.52 337.078 287.52 337.939C287.52 338.799 288.217 339.496 289.08 339.496C289.942 339.496 290.64 338.799 290.64 337.939Z" fill="#EFEFEF"/>
<path d="M262.505 400.221C262.505 399.361 261.807 398.664 260.945 398.664C260.083 398.664 259.385 399.361 259.385 400.221C259.385 401.082 260.083 401.779 260.945 401.779C261.807 401.779 262.505 401.082 262.505 400.221Z" fill="#EFEFEF"/>
<path d="M283.593 439.353C283.593 438.493 282.895 437.796 282.033 437.796C281.171 437.796 280.473 438.493 280.473 439.353C280.473 440.214 281.171 440.91 282.033 440.91C282.895 440.91 283.593 440.214 283.593 439.353Z" fill="#EFEFEF"/>
<path d="M332.677 420.846C333.539 420.846 334.237 420.149 334.237 419.289C334.237 418.429 333.539 417.732 332.677 417.732C331.816 417.732 331.117 418.429 331.117 419.289C331.117 420.149 331.816 420.846 332.677 420.846Z" fill="#EFEFEF"/>
<path d="M262.505 400.221C262.505 399.361 261.807 398.664 260.945 398.664C260.083 398.664 259.385 399.361 259.385 400.221C259.385 401.082 260.083 401.779 260.945 401.779C261.807 401.779 262.505 401.082 262.505 400.221Z" fill="#EFEFEF"/>
<path d="M380.518 385.962C380.518 385.102 379.821 384.405 378.958 384.405C378.096 384.405 377.398 385.102 377.398 385.962C377.398 386.823 378.096 387.519 378.958 387.519C379.821 387.519 380.518 386.823 380.518 385.962Z" fill="#EFEFEF"/>
<path d="M373.964 249.664C373.964 248.803 373.266 248.107 372.404 248.107C371.542 248.107 370.844 248.803 370.844 249.664C370.844 250.524 371.542 251.221 372.404 251.221C373.266 251.221 373.964 250.524 373.964 249.664Z" fill="#EFEFEF"/>
<path d="M332.677 420.846C333.539 420.846 334.237 420.149 334.237 419.289C334.237 418.429 333.539 417.732 332.677 417.732C331.816 417.732 331.117 418.429 331.117 419.289C331.117 420.149 331.816 420.846 332.677 420.846Z" fill="#EFEFEF"/>
<path d="M380.518 385.962C380.518 385.102 379.821 384.405 378.958 384.405C378.096 384.405 377.398 385.102 377.398 385.962C377.398 386.823 378.096 387.519 378.958 387.519C379.821 387.519 380.518 386.823 380.518 385.962Z" fill="#EFEFEF"/>
<path d="M290.64 337.939C290.64 337.078 289.942 336.382 289.08 336.382C288.217 336.382 287.52 337.078 287.52 337.939C287.52 338.799 288.217 339.496 289.08 339.496C289.942 339.496 290.64 338.799 290.64 337.939Z" fill="#EFEFEF"/>
<path d="M419.423 335.289C419.423 334.429 418.725 333.732 417.863 333.732C417.001 333.732 416.303 334.429 416.303 335.289C416.303 336.149 417.001 336.846 417.863 336.846C418.725 336.846 419.423 336.149 419.423 335.289Z" fill="#EFEFEF"/>
<path d="M380.518 385.962C380.518 385.102 379.821 384.405 378.958 384.405C378.096 384.405 377.398 385.102 377.398 385.962C377.398 386.823 378.096 387.519 378.958 387.519C379.821 387.519 380.518 386.823 380.518 385.962Z" fill="#EFEFEF"/>
<path d="M423.472 270.179C423.472 269.318 422.774 268.622 421.912 268.622C421.049 268.622 420.352 269.318 420.352 270.179C420.352 271.039 421.049 271.736 421.912 271.736C422.774 271.736 423.472 271.039 423.472 270.179Z" fill="#EFEFEF"/>
<path d="M441.481 279.89C441.481 279.03 440.783 278.333 439.921 278.333C439.059 278.333 438.361 279.03 438.361 279.89C438.361 280.751 439.059 281.447 439.921 281.447C440.783 281.447 441.481 280.751 441.481 279.89Z" fill="#EFEFEF"/>
<path d="M419.423 335.289C419.423 334.429 418.725 333.732 417.863 333.732C417.001 333.732 416.303 334.429 416.303 335.289C416.303 336.149 417.001 336.846 417.863 336.846C418.725 336.846 419.423 336.149 419.423 335.289Z" fill="#EFEFEF"/>
<path d="M447.393 217.607C447.393 216.747 446.695 216.05 445.833 216.05C444.971 216.05 444.273 216.747 444.273 217.607C444.273 218.468 444.971 219.164 445.833 219.164C446.695 219.164 447.393 218.468 447.393 217.607Z" fill="#EFEFEF"/>
<path d="M423.472 270.179C423.472 269.318 422.774 268.622 421.912 268.622C421.049 268.622 420.352 269.318 420.352 270.179C420.352 271.039 421.049 271.736 421.912 271.736C422.774 271.736 423.472 271.039 423.472 270.179Z" fill="#EFEFEF"/>
<path d="M419.423 335.289C419.423 334.429 418.725 333.732 417.863 333.732C417.001 333.732 416.303 334.429 416.303 335.289C416.303 336.149 417.001 336.846 417.863 336.846C418.725 336.846 419.423 336.149 419.423 335.289Z" fill="#EFEFEF"/>
<path d="M373.964 249.664C373.964 248.803 373.266 248.107 372.404 248.107C371.542 248.107 370.844 248.803 370.844 249.664C370.844 250.524 371.542 251.221 372.404 251.221C373.266 251.221 373.964 250.524 373.964 249.664Z" fill="#EFEFEF"/>
<path d="M290.64 337.939C290.64 337.078 289.942 336.382 289.08 336.382C288.217 336.382 287.52 337.078 287.52 337.939C287.52 338.799 288.217 339.496 289.08 339.496C289.942 339.496 290.64 338.799 290.64 337.939Z" fill="#EFEFEF"/>
<path d="M350.809 137.801C350.809 136.94 350.112 136.244 349.249 136.244C348.387 136.244 347.689 136.94 347.689 137.801C347.689 138.661 348.387 139.358 349.249 139.358C350.112 139.358 350.809 138.661 350.809 137.801Z" fill="#EFEFEF"/>
<path d="M254.362 228.343C254.362 227.482 253.664 226.786 252.802 226.786C251.94 226.786 251.242 227.482 251.242 228.343C251.242 229.203 251.94 229.9 252.802 229.9C253.664 229.9 254.362 229.217 254.362 228.343Z" fill="#EFEFEF"/>
<path d="M373.964 249.664C373.964 248.803 373.266 248.107 372.404 248.107C371.542 248.107 370.844 248.803 370.844 249.664C370.844 250.524 371.542 251.221 372.404 251.221C373.266 251.221 373.964 250.524 373.964 249.664Z" fill="#EFEFEF"/>
<path d="M288.929 113.625C288.929 112.765 288.231 112.068 287.369 112.068C286.506 112.068 285.809 112.765 285.809 113.625C285.809 114.486 286.506 115.182 287.369 115.182C288.231 115.182 288.929 114.486 288.929 113.625Z" fill="#EFEFEF"/>
<path d="M237.325 150.039C237.325 149.178 236.627 148.482 235.765 148.482C234.903 148.482 234.205 149.178 234.205 150.039C234.205 150.899 234.903 151.596 235.765 151.596C236.627 151.596 237.325 150.899 237.325 150.039Z" fill="#EFEFEF"/>
<path d="M254.362 228.343C254.362 227.482 253.664 226.786 252.802 226.786C251.94 226.786 251.242 227.482 251.242 228.343C251.242 229.203 251.94 229.9 252.802 229.9C253.664 229.9 254.362 229.217 254.362 228.343Z" fill="#EFEFEF"/>
<path d="M288.929 113.625C288.929 112.765 288.231 112.068 287.369 112.068C286.506 112.068 285.809 112.765 285.809 113.625C285.809 114.486 286.506 115.182 287.369 115.182C288.231 115.182 288.929 114.486 288.929 113.625Z" fill="#EFEFEF"/>
<path d="M173.544 105.048C173.544 104.187 172.846 103.49 171.984 103.49C171.122 103.49 170.424 104.187 170.424 105.048C170.424 105.908 171.122 106.605 171.984 106.605C172.846 106.605 173.544 105.908 173.544 105.048Z" fill="#EFEFEF"/>
<path d="M237.325 150.039C237.325 149.178 236.627 148.482 235.765 148.482C234.903 148.482 234.205 149.178 234.205 150.039C234.205 150.899 234.903 151.596 235.765 151.596C236.627 151.596 237.325 150.899 237.325 150.039Z" fill="#EFEFEF"/>
<path d="M187.145 13.8087C187.145 12.9482 186.448 12.2516 185.585 12.2516C184.723 12.2516 184.025 12.9482 184.025 13.8087C184.025 14.6691 184.723 15.3657 185.585 15.3657C186.448 15.3657 187.145 14.6691 187.145 13.8087Z" fill="#EFEFEF"/>
<path d="M173.544 105.048C173.544 104.187 172.846 103.49 171.984 103.49C171.122 103.49 170.424 104.187 170.424 105.048C170.424 105.908 171.122 106.605 171.984 106.605C172.846 106.605 173.544 105.908 173.544 105.048Z" fill="#EFEFEF"/>
<path d="M249.956 36.3316C249.956 35.4711 249.258 34.7745 248.396 34.7745C247.534 34.7745 246.836 35.4711 246.836 36.3316C246.836 37.1921 247.534 37.8887 248.396 37.8887C249.258 37.8887 249.956 37.1921 249.956 36.3316Z" fill="#EFEFEF"/>
<path d="M257.675 11.9785C257.675 11.118 256.977 10.4214 256.115 10.4214C255.253 10.4214 254.555 11.118 254.555 11.9785C254.555 12.8389 255.253 13.5355 256.115 13.5355C256.977 13.5355 257.675 12.8389 257.675 11.9785Z" fill="#EFEFEF"/>
<path d="M187.145 13.8087C187.145 12.9482 186.448 12.2516 185.585 12.2516C184.723 12.2516 184.025 12.9482 184.025 13.8087C184.025 14.6691 184.723 15.3657 185.585 15.3657C186.448 15.3657 187.145 14.6691 187.145 13.8087Z" fill="#EFEFEF"/>
<path d="M249.956 36.3316C249.956 35.4711 249.258 34.7745 248.396 34.7745C247.534 34.7745 246.836 35.4711 246.836 36.3316C246.836 37.1921 247.534 37.8887 248.396 37.8887C249.258 37.8887 249.956 37.1921 249.956 36.3316Z" fill="#EFEFEF"/>
<path d="M288.929 113.625C288.929 112.765 288.231 112.068 287.369 112.068C286.506 112.068 285.809 112.765 285.809 113.625C285.809 114.486 286.506 115.182 287.369 115.182C288.231 115.182 288.929 114.486 288.929 113.625Z" fill="#EFEFEF"/>
<path d="M311.058 24.1072C311.058 23.2468 310.36 22.5502 309.498 22.5502C308.635 22.5502 307.938 23.2468 307.938 24.1072C307.938 24.9677 308.635 25.6643 309.498 25.6643C310.36 25.6643 311.058 24.9677 311.058 24.1072Z" fill="#EFEFEF"/>
<path d="M249.956 36.3316C249.956 35.4711 249.258 34.7745 248.396 34.7745C247.534 34.7745 246.836 35.4711 246.836 36.3316C246.836 37.1921 247.534 37.8887 248.396 37.8887C249.258 37.8887 249.956 37.1921 249.956 36.3316Z" fill="#EFEFEF"/>
<path d="M347.841 45.0457C347.841 44.1852 347.143 43.4886 346.281 43.4886C345.419 43.4886 344.721 44.1852 344.721 45.0457C344.721 45.9062 345.419 46.6028 346.281 46.6028C347.143 46.6028 347.841 45.9062 347.841 45.0457Z" fill="#EFEFEF"/>
<path d="M311.058 24.1072C311.058 23.2468 310.36 22.5502 309.498 22.5502C308.635 22.5502 307.938 23.2468 307.938 24.1072C307.938 24.9677 308.635 25.6643 309.498 25.6643C310.36 25.6643 311.058 24.9677 311.058 24.1072Z" fill="#EFEFEF"/>
<path d="M340.382 62.1188C340.382 61.2584 339.684 60.5618 338.822 60.5618C337.96 60.5618 337.262 61.2584 337.262 62.1188C337.262 62.9793 337.96 63.6759 338.822 63.6759C339.684 63.6759 340.382 62.9793 340.382 62.1188Z" fill="#EFEFEF"/>
<path d="M347.841 45.0457C347.841 44.1852 347.143 43.4886 346.281 43.4886C345.419 43.4886 344.721 44.1852 344.721 45.0457C344.721 45.9062 345.419 46.6028 346.281 46.6028C347.143 46.6028 347.841 45.9062 347.841 45.0457Z" fill="#EFEFEF"/>
<path d="M389.495 80.0524C389.495 79.1919 388.797 78.4954 387.935 78.4954C387.073 78.4954 386.375 79.1919 386.375 80.0524C386.375 80.9129 387.073 81.6095 387.935 81.6095C388.797 81.6095 389.495 80.9129 389.495 80.0524Z" fill="#EFEFEF"/>
<path d="M340.382 62.1188C340.382 61.2584 339.684 60.5618 338.822 60.5618C337.96 60.5618 337.262 61.2584 337.262 62.1188C337.262 62.9793 337.96 63.6759 338.822 63.6759C339.684 63.6759 340.382 62.9793 340.382 62.1188Z" fill="#EFEFEF"/>
<path d="M288.929 113.625C288.929 112.765 288.231 112.068 287.369 112.068C286.506 112.068 285.809 112.765 285.809 113.625C285.809 114.486 286.506 115.182 287.369 115.182C288.231 115.182 288.929 114.486 288.929 113.625Z" fill="#EFEFEF"/>
<path d="M350.809 137.801C350.809 136.94 350.112 136.244 349.249 136.244C348.387 136.244 347.689 136.94 347.689 137.801C347.689 138.661 348.387 139.358 349.249 139.358C350.112 139.358 350.809 138.661 350.809 137.801Z" fill="#EFEFEF"/>
<path d="M373.964 249.664C373.964 248.803 373.266 248.107 372.404 248.107C371.542 248.107 370.844 248.803 370.844 249.664C370.844 250.524 371.542 251.221 372.404 251.221C373.266 251.221 373.964 250.524 373.964 249.664Z" fill="#EFEFEF"/>
<path d="M423.472 270.179C423.472 269.318 422.774 268.622 421.912 268.622C421.049 268.622 420.352 269.318 420.352 270.179C420.352 271.039 421.049 271.736 421.912 271.736C422.774 271.736 423.472 271.039 423.472 270.179Z" fill="#EFEFEF"/>
<path d="M424.239 130.125C424.239 129.264 423.541 128.568 422.679 128.568C421.817 128.568 421.119 129.264 421.119 130.125C421.119 130.985 421.817 131.682 422.679 131.682C423.541 131.682 424.239 130.985 424.239 130.125Z" fill="#EFEFEF"/>
<path d="M340.382 62.1188C340.382 61.2584 339.684 60.5618 338.822 60.5618C337.96 60.5618 337.262 61.2584 337.262 62.1188C337.262 62.9793 337.96 63.6759 338.822 63.6759C339.684 63.6759 340.382 62.9793 340.382 62.1188Z" fill="#EFEFEF"/>
<path d="M389.495 80.0524C389.495 79.1919 388.797 78.4954 387.935 78.4954C387.073 78.4954 386.375 79.1919 386.375 80.0524C386.375 80.9129 387.073 81.6095 387.935 81.6095C388.797 81.6095 389.495 80.9129 389.495 80.0524Z" fill="#EFEFEF"/>
<path d="M350.809 137.801C350.809 136.94 350.112 136.244 349.249 136.244C348.387 136.244 347.689 136.94 347.689 137.801C347.689 138.661 348.387 139.358 349.249 139.358C350.112 139.358 350.809 138.661 350.809 137.801Z" fill="#EFEFEF"/>
<path d="M424.239 130.125C424.239 129.264 423.541 128.568 422.679 128.568C421.817 128.568 421.119 129.264 421.119 130.125C421.119 130.985 421.817 131.682 422.679 131.682C423.541 131.682 424.239 130.985 424.239 130.125Z" fill="#EFEFEF"/>
<path d="M350.809 137.801C350.809 136.94 350.112 136.244 349.249 136.244C348.387 136.244 347.689 136.94 347.689 137.801C347.689 138.661 348.387 139.358 349.249 139.358C350.112 139.358 350.809 138.661 350.809 137.801Z" fill="#EFEFEF"/>
<path d="M442.22 179.459C442.22 178.599 441.522 177.902 440.66 177.902C439.797 177.902 439.1 178.599 439.1 179.459C439.1 180.32 439.797 181.016 440.66 181.016C441.522 181.016 442.22 180.32 442.22 179.459Z" fill="#EFEFEF"/>
<path d="M447.393 217.607C447.393 216.747 446.695 216.05 445.833 216.05C444.971 216.05 444.273 216.747 444.273 217.607C444.273 218.468 444.971 219.164 445.833 219.164C446.695 219.164 447.393 218.468 447.393 217.607Z" fill="#EFEFEF"/>
<path d="M373.964 249.664C373.964 248.803 373.266 248.107 372.404 248.107C371.542 248.107 370.844 248.803 370.844 249.664C370.844 250.524 371.542 251.221 372.404 251.221C373.266 251.221 373.964 250.524 373.964 249.664Z" fill="#EFEFEF"/>
<path d="M424.239 130.125C424.239 129.264 423.541 128.568 422.679 128.568C421.817 128.568 421.119 129.264 421.119 130.125C421.119 130.985 421.817 131.682 422.679 131.682C423.541 131.682 424.239 130.985 424.239 130.125Z" fill="#EFEFEF"/>
<path d="M206.973 453.968C206.96 453.968 206.932 453.968 206.919 453.968L151.621 441.839C151.607 441.839 151.593 441.825 151.566 441.825C151.552 441.825 151.538 441.812 151.525 441.798L65.6699 388.789C65.6562 388.776 65.6425 388.762 65.6288 388.748C65.6151 388.735 65.6151 388.721 65.6014 388.708L27.4498 334.565C27.4361 334.552 27.4224 334.524 27.4224 334.511V334.497L4.98025 272.474C4.98025 272.474 4.98025 272.474 4.98025 272.46C4.98025 272.433 4.96656 272.419 4.96656 272.392L3.06445 199.483C3.06445 199.469 3.06445 199.442 3.06445 199.428C3.06445 199.414 3.06445 199.414 3.06445 199.401L15.654 144.22C15.654 144.193 15.6676 144.166 15.6813 144.138L37.3982 106.127C37.3982 106.127 37.3982 106.113 37.4119 106.113C37.4119 106.099 37.4256 106.099 37.4256 106.086L73.7572 63.0204C73.7709 63.0067 73.7983 62.9794 73.812 62.9658L125.771 27.0439C125.785 27.0302 125.798 27.0302 125.798 27.0302C125.812 27.0302 125.812 27.0166 125.826 27.0166L156.903 14.9015C157.026 14.8468 157.163 14.9015 157.231 15.0107C157.3 15.12 157.286 15.2703 157.19 15.3522L144.354 27.0985L168.329 27.2351L176.868 8.57759C176.909 8.49564 176.991 8.42734 177.087 8.41368L216.675 3.07321C216.689 3.07321 216.703 3.05955 216.717 3.07321C216.744 3.07321 216.758 3.07321 216.771 3.08687L276.79 17.3054L281.101 9.34246C281.169 9.21954 281.306 9.1649 281.443 9.21954L338.93 32.0292H338.944C338.958 32.0429 338.985 32.0566 338.999 32.0566L391.574 72.2672C391.587 72.2809 391.601 72.2945 391.615 72.3082C391.615 72.3218 391.629 72.3218 391.629 72.3355L426.209 120.168C426.209 120.181 426.222 120.181 426.222 120.195C426.222 120.209 426.236 120.222 426.236 120.236L447.05 172.589C447.104 172.712 447.05 172.862 446.927 172.93L438.045 177.697L442.055 197.174L452.181 200.411C452.291 200.452 452.373 200.548 452.373 200.671L452.948 250.183C452.948 250.197 452.948 250.21 452.948 250.224C452.948 250.238 452.948 250.238 452.948 250.251L443.875 296.321C443.861 296.403 443.793 296.485 443.711 296.513C443.629 296.554 443.533 296.54 443.464 296.499L439.715 294.245L427.276 335.617C427.276 335.631 427.276 335.631 427.262 335.644C427.249 335.672 427.235 335.685 427.221 335.712L389.247 387.123C389.234 387.137 389.22 387.164 389.206 387.178C389.206 387.178 389.206 387.178 389.193 387.178L332.732 429.164C332.649 429.232 332.54 429.232 332.444 429.191C332.348 429.137 332.294 429.041 332.294 428.945L332.636 418.756L277.858 449.324C277.789 449.365 277.707 449.365 277.639 449.351L167.973 417.185L207.151 453.544C207.247 453.626 207.261 453.763 207.206 453.872C207.165 453.913 207.069 453.968 206.973 453.968ZM151.949 441.347L206.043 453.217L166.81 416.789L153.687 413.156L151.949 441.347ZM168.261 416.653L277.338 448.641L266.048 403.609L168.261 416.653ZM266.596 403.527L277.844 448.422L317.747 396.711L266.596 403.527ZM318.527 396.602L278.761 448.149L332.663 418.073L333.443 394.622L318.527 396.602ZM124.69 405.125L151.443 440.801L153.153 413.006L124.69 405.125ZM67.5856 389.308L150.581 440.569L123.828 404.893L67.5856 389.308ZM333.197 418.401L332.868 428.358L385.512 389.213L333.197 418.401ZM333.99 394.54L333.21 417.759L387.633 387.383L333.99 394.54ZM153.961 408.895L166.906 416.216L202.416 380.308L155.63 381.865L153.961 408.895ZM203.21 380.267L167.7 416.161L265.911 403.063L259.726 378.395L203.21 380.267ZM153.728 412.596L164.881 415.683L153.92 409.496L153.728 412.596ZM124.156 404.415L153.194 412.46L153.4 409.209L108.885 384.05L124.156 404.415ZM108.857 383.394L153.427 408.581L155.083 381.851L108.857 383.394ZM67.1888 388.639L123.294 404.183L107.763 383.463L67.1888 388.639ZM260.301 378.382L266.472 403.008L318.24 396.097L333.785 375.95L260.301 378.382ZM334.045 376.483L318.993 395.988L333.457 394.062L334.045 376.483ZM334.62 375.978L334.018 393.98L387.4 386.864L334.62 375.978ZM60.0593 354.411L66.0393 388.243L107.078 382.998L60.0593 354.411ZM28.6266 335.303L64.972 386.877L52.7793 349.986L28.6266 335.303ZM335.249 375.554L388.851 386.604L404.081 345.724L335.249 375.554ZM404.779 345.437L389.959 385.197L426.181 336.15L404.779 345.437ZM53.5046 350.423L64.8899 384.856L59.4435 354.029L53.5046 350.423ZM158.422 327.763L108.515 382.862L155.11 381.318L158.422 327.763ZM103.794 330.358L108.105 382.507L158.093 327.312L103.794 330.358ZM56.5972 333.008L107.557 382.452L103.26 330.386L56.5972 333.008ZM59.9225 353.687L105.943 381.66L56.3783 333.554L59.9225 353.687ZM158.996 327.299L155.657 381.305L202.978 379.734L248.218 333.992L158.996 327.299ZM248.683 334.292L203.771 379.707L259.603 377.849L248.683 334.292ZM249.23 334.265L260.15 377.835L333.238 375.418L249.23 334.265ZM249.682 333.869L334.045 375.186L328.448 318.393L249.682 333.869ZM362.248 311.755L334.88 375.117L404.355 345.014L421.05 300.2L362.248 311.755ZM328.982 318.298L334.524 374.571L361.605 311.892L328.982 318.298ZM53.2309 349.617L59.3067 353.305L55.7351 333.049L47.9214 333.5L53.2309 349.617ZM28.5445 334.606L52.5193 349.18L47.3467 333.541L28.5445 334.606ZM421.364 300.924L405.053 344.727L426.715 335.344L421.364 300.924ZM419.148 281.871L421.748 299.804L427.098 334.265L439.236 293.917L419.148 281.871ZM5.99288 273.703L27.8466 334.101L47.1688 332.994L41.5719 316.072L5.99288 273.703ZM158.983 326.752L248.163 333.445L166.66 243.149L150.622 253.611L158.983 326.752ZM321.524 248.161L249.531 333.35L328.38 317.861L321.524 248.161ZM228.198 203.334L248.998 333.131L321.291 247.588L228.198 203.334ZM42.5161 317.205L47.7298 332.967L55.393 332.53L42.5161 317.205ZM167.125 242.835L248.409 332.885L227.637 203.321L167.125 242.835ZM99.6752 287.034L56.6246 332.462L103.206 329.853L99.6752 287.034ZM42.0645 315.798L55.9677 332.366L99.3331 286.61L28.955 276.161L42.0645 315.798ZM100.223 286.965L103.753 329.826L157.929 326.78L100.223 286.965ZM100.387 286.419L158.394 326.438L150.115 253.939L100.387 286.419ZM322.044 247.834L328.927 317.752L361.865 311.277L383.692 260.741L322.044 247.834ZM5.88341 272.733L41.1066 314.678L28.3529 276.066L5.88341 272.733ZM384.198 260.932L362.508 311.154L421.173 299.627L418.545 281.516L384.198 260.932ZM439.879 293.672L443.41 295.789L451.333 255.592L439.879 293.672ZM419.052 281.174L439.4 293.371L452.304 250.47L415.412 256.056L419.052 281.174ZM28.7635 275.574L99.1826 286.036L66.7235 250.074L25.3561 265.248L28.7635 275.574ZM67.2709 249.869L99.6752 285.763L103.343 236.647L67.2709 249.869ZM103.904 236.429L100.25 285.449L145.846 221.036L103.904 236.429ZM146.38 221.213L100.934 285.408L150.047 253.324L146.38 221.213ZM384.868 260.686L418.45 280.805L414.878 256.138L384.868 260.686ZM6.30762 272.241L28.1477 275.492L24.8224 265.453L6.30762 272.241ZM16.7761 241.045L5.66446 271.9L24.6582 264.934L16.7761 241.045ZM3.62551 201.285L5.43183 270.903L16.475 240.212L3.62551 201.285ZM17.0771 240.199L25.1782 264.729L66.3267 249.623L28.695 207.937L17.0771 240.199ZM406.093 195.617L384.472 260.195L414.782 255.605L406.093 195.617ZM322.455 247.356L383.61 260.154L365.752 220.162L322.455 247.356ZM366.217 219.875L384.047 259.785L405.71 195.084L366.217 219.875ZM406.599 195.358L415.33 255.523L452.168 249.937L406.599 195.358ZM146.941 221.282L150.567 252.997L166.304 242.725L146.941 221.282ZM29.0371 207.5L66.8878 249.432L103.384 236.033L108.488 167.59L29.0371 207.5ZM406.626 194.524L452.209 249.131L441.603 197.557L416.137 189.43L406.626 194.524ZM442.192 197.734L452.387 247.287L451.839 200.821L442.192 197.734ZM228.581 202.911L321.551 247.096L341.188 165.76L228.581 202.911ZM341.64 166.197L322.154 246.891L365.519 219.656L341.64 166.197ZM147.091 220.64L166.755 242.425L226.446 203.443L147.091 220.64ZM3.73498 199.851L16.7897 239.365L28.2298 207.596L3.73498 199.851ZM109.008 167.904L103.945 235.828L146.147 220.339L109.008 167.904ZM109.473 167.617L146.694 220.162L226.747 202.815L109.473 167.617ZM342.105 165.896L365.984 219.369L405.614 194.484L342.105 165.896ZM3.63919 199.25L28.2298 207.022L15.8866 145.559L3.63919 199.25ZM34.0729 149.001L28.9003 206.954L108.009 167.207L34.0729 149.001ZM16.2561 144.616L28.4761 205.52L33.5393 148.878L16.2561 144.616ZM240.212 135.288L228.198 202.46L340.655 165.364L240.212 135.288ZM109.446 167.044L226.939 202.31L162.541 133.976L109.446 167.044ZM163.02 133.676L227.678 202.283L239.692 135.124L186.351 119.143L163.02 133.676ZM416.794 189.061L441.467 196.928L437.553 177.916L416.794 189.061ZM346.033 167.071L405.86 194.005L404.875 185.851L346.033 167.071ZM408.474 186.985L406.626 193.91L415.398 189.198L408.474 186.985ZM405.45 186.015L406.298 192.995L407.954 186.807L405.45 186.015ZM408.611 186.452L416.069 188.829L437.443 177.356L425.949 121.465L408.611 186.452ZM405.381 185.428L408.091 186.288L425.552 120.823L399.237 134.864L405.381 185.428ZM342.256 165.282L404.806 185.237L398.731 135.137L342.256 165.282ZM426.879 123.268L437.95 177.083L446.461 172.507L426.879 123.268ZM55.9267 114.131L108.693 166.634L133.462 103.491L55.9267 114.131ZM34.1277 148.454L107.899 166.634L55.3246 114.294L35.8382 129.264L34.1277 148.454ZM133.982 103.654L109.35 166.456L162.171 133.567L133.982 103.654ZM240.308 134.741L340.532 164.749L250.147 79.7521L240.308 134.741ZM250.9 79.7111L341.284 164.708L339.957 100.486L250.9 79.7111ZM372.58 108.107L342.228 164.694L398.662 134.564L396.117 113.598L372.58 108.107ZM340.504 100.622L341.818 164.312L372.033 107.984L340.504 100.622ZM16.5161 144.111L33.5803 148.318L35.2361 129.715L16.5161 144.111ZM37.234 107.452L17.0087 142.868L35.5919 125.863L37.234 107.452ZM35.5235 126.655L20.7855 140.15L35.3182 128.977L35.5235 126.655ZM186.967 118.774L239.788 134.591L249.6 79.7657L186.967 118.774ZM396.678 113.721L399.169 134.277L425.21 120.372L396.678 113.721ZM134.775 103.709L162.636 133.266L185.64 118.938L134.775 103.709ZM36.1256 126.109L35.9066 128.527L54.8183 113.994L51.1235 112.382L36.1256 126.109ZM37.8635 106.632L36.194 125.303L50.5625 112.15L37.8635 106.632ZM396.61 113.147L425.333 119.853L391.806 73.4692L396.61 113.147ZM134.994 103.204L186.255 118.556L248.519 79.7794L134.994 103.204ZM74.0172 91.4301L55.9951 113.571L133.133 102.985L91.6426 75.2994L74.0172 91.4301ZM51.5614 111.986L55.2014 113.571L57.9109 106.181L51.5614 111.986ZM372.854 107.602L396.049 113.011L391.232 73.3189L372.854 107.602ZM58.773 105.375L56.173 112.492L71.2667 93.9569L58.773 105.375ZM38.0687 106.127L51.014 111.754L58.3077 105.075L73.1688 64.5228L38.0687 106.127ZM340.49 100.049L372.306 107.465L390.944 72.7316L339.984 75.1765L340.49 100.049ZM74.0857 63.5804L59.1698 104.269L73.6067 91.0613L88.2625 73.0594L74.0857 63.5804ZM161.884 42.6009L134.351 102.78L249.052 79.1238L161.884 42.6009ZM92.0668 74.917L133.557 102.603L127.263 42.6965L92.0668 74.917ZM127.769 42.2458L134.05 102.138L161.377 42.3961L138.21 32.6849L127.769 42.2458ZM251.94 79.3969L339.943 99.9257L339.437 75.2038L251.94 79.3969ZM88.7278 73.3599L76.3846 88.5345L91.1773 74.9989L88.7278 73.3599ZM315.708 44.759L251.187 78.8779L339.423 74.6574L338.985 53.3638L315.708 44.759ZM162.103 42.1092L249.436 78.7004L227.24 28.0683L168.657 27.7405L162.103 42.1092ZM271.412 28.3824L250.517 78.6184L315.024 44.4995L271.412 28.3824ZM227.855 28.0683L249.969 78.5091L270.851 28.3005L227.855 28.0683ZM339.533 53.555L339.97 74.6301L390.055 72.2262L339.533 53.555ZM89.0836 72.9228L91.6015 74.6028L127.208 42.0273L125.73 27.9317L89.0836 72.9228ZM74.4415 63.157L88.6183 72.6223L124.485 28.56L74.4415 63.157ZM339.519 52.9677L389.795 71.5433L339.095 32.7805L339.519 52.9677ZM316.351 44.4175L338.972 52.7765L338.561 32.6849L316.351 44.4175ZM273.096 28.4234L315.667 44.158L337.836 32.439L273.096 28.4234ZM138.648 32.2751L161.596 41.8907L168.069 27.7405L143.752 27.6039L138.648 32.2751ZM126.236 27.6722L127.701 41.5629L137.663 32.4527L126.236 27.6722ZM127.29 27.5219L138.087 32.0429L142.931 27.6039L127.29 27.5219ZM271.7 27.7951L335.646 31.7561L277.064 17.879L271.7 27.7951ZM277.324 17.3873L335.208 31.1005L281.457 9.76588L277.324 17.3873ZM227.609 27.5219L269.976 27.7541L217.237 3.85174L227.609 27.5219ZM219.371 4.22052L271.125 27.6858L276.503 17.7561L219.371 4.22052ZM168.917 27.2078L227.007 27.5219L216.525 3.60589L177.292 8.90539L168.917 27.2078ZM127.345 26.9756L143.533 27.0575L155.726 15.8985L127.345 26.9756Z" fill="#E6F9FC"/>
<path d="M125.923 30.5404C127.752 30.5404 129.234 29.0605 129.234 27.235C129.234 25.4095 127.752 23.9297 125.923 23.9297C124.094 23.9297 122.611 25.4095 122.611 27.235C122.611 29.0605 124.094 30.5404 125.923 30.5404Z" fill="#E6F9FC"/>
<path d="M156.998 17.6331C158.389 17.6331 159.516 16.508 159.516 15.12C159.516 13.732 158.389 12.6068 156.998 12.6068C155.608 12.6068 154.48 13.732 154.48 15.12C154.48 16.508 155.608 17.6331 156.998 17.6331Z" fill="#E6F9FC"/>
<path d="M19.213 144.247C19.213 146.078 17.7351 147.553 15.9014 147.553C14.0677 147.553 12.5898 146.078 12.5898 144.247C12.5898 142.417 14.0677 140.942 15.9014 140.942C17.7351 140.942 19.213 142.417 19.213 144.247Z" fill="#E6F9FC"/>
<path d="M6.62317 199.428C6.62317 201.258 5.14528 202.733 3.31159 202.733C1.4779 202.733 0 201.258 0 199.428C0 197.598 1.4779 196.123 3.31159 196.123C5.14528 196.123 6.62317 197.611 6.62317 199.428Z" fill="#E6F9FC"/>
<path d="M69.1193 388.544C69.1193 390.374 67.6414 391.849 65.8077 391.849C63.974 391.849 62.4961 390.374 62.4961 388.544C62.4961 386.713 63.974 385.238 65.8077 385.238C67.6414 385.238 69.1193 386.713 69.1193 388.544Z" fill="#E6F9FC"/>
<path d="M170.26 416.544C170.26 418.374 168.782 419.849 166.948 419.849C165.115 419.849 163.637 418.374 163.637 416.544C163.637 414.713 165.115 413.238 166.948 413.238C168.782 413.238 170.26 414.727 170.26 416.544Z" fill="#E6F9FC"/>
<path d="M107.886 386.467C109.715 386.467 111.197 384.988 111.197 383.162C111.197 381.337 109.715 379.857 107.886 379.857C106.057 379.857 104.574 381.337 104.574 383.162C104.574 384.988 106.057 386.467 107.886 386.467Z" fill="#E6F9FC"/>
<path d="M334.36 378.955C336.189 378.955 337.672 377.475 337.672 375.65C337.672 373.824 336.189 372.344 334.36 372.344C332.531 372.344 331.049 373.824 331.049 375.65C331.049 377.475 332.531 378.955 334.36 378.955Z" fill="#E6F9FC"/>
<path d="M387.387 260.536C387.387 262.366 385.909 263.841 384.075 263.841C382.242 263.841 380.764 262.366 380.764 260.536C380.764 258.706 382.242 257.231 384.075 257.231C385.895 257.231 387.387 258.706 387.387 260.536Z" fill="#E6F9FC"/>
<path d="M325.041 247.478C325.041 249.309 323.563 250.784 321.73 250.784C319.896 250.784 318.418 249.309 318.418 247.478C318.418 245.648 319.896 244.173 321.73 244.173C323.563 244.173 325.041 245.662 325.041 247.478Z" fill="#E6F9FC"/>
<path d="M334.36 378.955C336.189 378.955 337.672 377.475 337.672 375.65C337.672 373.824 336.189 372.344 334.36 372.344C332.531 372.344 331.049 373.824 331.049 375.65C331.049 377.475 332.531 378.955 334.36 378.955Z" fill="#E6F9FC"/>
<path d="M252.133 333.759C252.133 335.589 250.655 337.065 248.821 337.065C246.988 337.065 245.51 335.589 245.51 333.759C245.51 331.929 246.988 330.454 248.821 330.454C250.655 330.454 252.133 331.929 252.133 333.759Z" fill="#E6F9FC"/>
<path d="M424.785 299.845C424.785 301.675 423.307 303.151 421.474 303.151C419.64 303.151 418.162 301.675 418.162 299.845C418.162 298.015 419.64 296.54 421.474 296.54C423.307 296.54 424.785 298.015 424.785 299.845Z" fill="#E6F9FC"/>
<path d="M409.5 194.443C409.5 196.273 408.022 197.748 406.189 197.748C404.355 197.748 402.877 196.273 402.877 194.443C402.877 192.612 404.355 191.137 406.189 191.137C408.022 191.137 409.5 192.612 409.5 194.443Z" fill="#E6F9FC"/>
<path d="M452.689 253.447C454.517 253.447 456 251.967 456 250.142C456 248.316 454.517 246.837 452.689 246.837C450.86 246.837 449.377 248.316 449.377 250.142C449.377 251.967 450.86 253.447 452.689 253.447Z" fill="#E6F9FC"/>
<path d="M387.387 260.536C387.387 262.366 385.909 263.841 384.075 263.841C382.242 263.841 380.764 262.366 380.764 260.536C380.764 258.706 382.242 257.231 384.075 257.231C385.895 257.231 387.387 258.706 387.387 260.536Z" fill="#E6F9FC"/>
<path d="M446.12 296.212C446.12 297.592 444.998 298.712 443.616 298.712C442.233 298.712 441.111 297.592 441.111 296.212C441.111 294.833 442.233 293.713 443.616 293.713C444.998 293.713 446.12 294.833 446.12 296.212Z" fill="#E6F9FC"/>
<path d="M452.689 253.447C454.517 253.447 456 251.967 456 250.142C456 248.316 454.517 246.837 452.689 246.837C450.86 246.837 449.377 248.316 449.377 250.142C449.377 251.967 450.86 253.447 452.689 253.447Z" fill="#E6F9FC"/>
<path d="M427.017 338.813C428.846 338.813 430.328 337.333 430.328 335.508C430.328 333.682 428.846 332.202 427.017 332.202C425.188 332.202 423.705 333.682 423.705 335.508C423.705 337.333 425.188 338.813 427.017 338.813Z" fill="#E6F9FC"/>
<path d="M424.785 299.845C424.785 301.675 423.307 303.151 421.474 303.151C419.64 303.151 418.162 301.675 418.162 299.845C418.162 298.015 419.64 296.54 421.474 296.54C423.307 296.54 424.785 298.015 424.785 299.845Z" fill="#E6F9FC"/>
<path d="M392.34 386.918C392.34 388.748 390.862 390.224 389.028 390.224C387.195 390.224 385.717 388.748 385.717 386.918C385.717 385.088 387.195 383.613 389.028 383.613C390.862 383.626 392.34 385.102 392.34 386.918Z" fill="#E6F9FC"/>
<path d="M427.017 339.195C429.058 339.195 430.712 337.544 430.712 335.508C430.712 333.471 429.058 331.82 427.017 331.82C424.976 331.82 423.322 333.471 423.322 335.508C423.322 337.544 424.976 339.195 427.017 339.195Z" fill="#E6F9FC"/>
<path d="M334.36 378.955C336.189 378.955 337.672 377.475 337.672 375.65C337.672 373.824 336.189 372.344 334.36 372.344C332.531 372.344 331.049 373.824 331.049 375.65C331.049 377.475 332.531 378.955 334.36 378.955Z" fill="#E6F9FC"/>
<path d="M392.34 386.918C392.34 388.748 390.862 390.224 389.028 390.224C387.195 390.224 385.717 388.748 385.717 386.918C385.717 385.088 387.195 383.613 389.028 383.613C390.862 383.626 392.34 385.102 392.34 386.918Z" fill="#E6F9FC"/>
<path d="M336.536 428.904C336.536 431.09 334.758 432.865 332.568 432.865C330.379 432.865 328.6 431.09 328.6 428.904C328.6 426.719 330.379 424.943 332.568 424.943C334.771 424.943 336.536 426.719 336.536 428.904Z" fill="#E6F9FC"/>
<path d="M334.36 380.676C337.141 380.676 339.396 378.426 339.396 375.65C339.396 372.874 337.141 370.624 334.36 370.624C331.579 370.624 329.324 372.874 329.324 375.65C329.324 378.426 331.579 380.676 334.36 380.676Z" fill="#E6F9FC"/>
<path d="M281.033 449.037C281.033 450.867 279.555 452.342 277.722 452.342C275.888 452.342 274.41 450.867 274.41 449.037C274.41 447.207 275.888 445.732 277.722 445.732C279.555 445.732 281.033 447.207 281.033 449.037Z" fill="#E6F9FC"/>
<path d="M392.34 386.918C392.34 388.748 390.862 390.224 389.028 390.224C387.195 390.224 385.717 388.748 385.717 386.918C385.717 385.088 387.195 383.613 389.028 383.613C390.862 383.626 392.34 385.102 392.34 386.918Z" fill="#E6F9FC"/>
<path d="M170.26 416.544C170.26 418.374 168.782 419.849 166.948 419.849C165.115 419.849 163.637 418.374 163.637 416.544C163.637 414.713 165.115 413.238 166.948 413.238C168.782 413.238 170.26 414.727 170.26 416.544Z" fill="#E6F9FC"/>
<path d="M252.133 333.759C252.133 335.589 250.655 337.065 248.821 337.065C246.988 337.065 245.51 335.589 245.51 333.759C245.51 331.929 246.988 330.454 248.821 330.454C250.655 330.454 252.133 331.929 252.133 333.759Z" fill="#E6F9FC"/>
<path d="M281.033 449.037C281.033 450.867 279.555 452.342 277.722 452.342C275.888 452.342 274.41 450.867 274.41 449.037C274.41 447.207 275.888 445.732 277.722 445.732C279.555 445.732 281.033 447.207 281.033 449.037Z" fill="#E6F9FC"/>
<path d="M172.545 416.543C172.545 419.63 170.041 422.13 166.948 422.13C163.856 422.13 161.352 419.63 161.352 416.543C161.352 413.457 163.856 410.957 166.948 410.957C170.041 410.957 172.545 413.457 172.545 416.543Z" fill="#E6F9FC"/>
<path d="M210.285 453.695C210.285 455.525 208.807 457 206.974 457C205.14 457 203.662 455.525 203.662 453.695C203.662 451.864 205.14 450.389 206.974 450.389C208.794 450.389 210.285 451.864 210.285 453.695Z" fill="#E6F9FC"/>
<path d="M154.975 441.552C154.975 443.382 153.497 444.858 151.663 444.858C149.829 444.858 148.352 443.382 148.352 441.552C148.352 439.722 149.829 438.247 151.663 438.247C153.497 438.247 154.975 439.736 154.975 441.552Z" fill="#E6F9FC"/>
<path d="M162.049 327.012C162.049 328.842 160.571 330.317 158.737 330.317C156.904 330.317 155.426 328.842 155.426 327.012C155.426 325.182 156.917 323.707 158.737 323.707C160.571 323.707 162.049 325.182 162.049 327.012Z" fill="#E6F9FC"/>
<path d="M252.133 333.759C252.133 335.589 250.655 337.065 248.821 337.065C246.988 337.065 245.51 335.589 245.51 333.759C245.51 331.929 246.988 330.454 248.821 330.454C250.655 330.454 252.133 331.929 252.133 333.759Z" fill="#E6F9FC"/>
<path d="M325.041 247.478C325.041 249.309 323.563 250.784 321.73 250.784C319.896 250.784 318.418 249.309 318.418 247.478C318.418 245.648 319.896 244.173 321.73 244.173C323.563 244.173 325.041 245.662 325.041 247.478Z" fill="#E6F9FC"/>
<path d="M409.5 194.443C409.5 196.273 408.022 197.748 406.189 197.748C404.355 197.748 402.877 196.273 402.877 194.443C402.877 192.612 404.355 191.137 406.189 191.137C408.022 191.137 409.5 192.612 409.5 194.443Z" fill="#E6F9FC"/>
<path d="M388.524 260.536C388.524 262.995 386.526 264.975 384.076 264.975C381.627 264.975 379.629 262.981 379.629 260.536C379.629 258.078 381.627 256.097 384.076 256.097C386.526 256.097 388.524 258.078 388.524 260.536Z" fill="#E6F9FC"/>
<path d="M344.869 165.35C344.869 167.18 343.391 168.655 341.558 168.655C339.724 168.655 338.246 167.18 338.246 165.35C338.246 163.52 339.724 162.045 341.558 162.045C343.391 162.045 344.869 163.52 344.869 165.35Z" fill="#E6F9FC"/>
<path d="M327.012 247.478C327.012 250.388 324.644 252.751 321.729 252.751C318.815 252.751 316.447 250.388 316.447 247.478C316.447 244.569 318.815 242.206 321.729 242.206C324.644 242.22 327.012 244.569 327.012 247.478Z" fill="#E6F9FC"/>
<path d="M231.154 202.87C231.154 204.7 229.677 206.175 227.843 206.175C226.009 206.175 224.531 204.7 224.531 202.87C224.531 201.04 226.009 199.564 227.843 199.564C229.677 199.564 231.154 201.04 231.154 202.87Z" fill="#E6F9FC"/>
<path d="M254.035 333.759C254.035 336.628 251.708 338.95 248.835 338.95C245.961 338.95 243.635 336.628 243.635 333.759C243.635 330.891 245.961 328.569 248.835 328.569C251.695 328.569 254.035 330.891 254.035 333.759Z" fill="#E6F9FC"/>
<path d="M146.571 223.781C148.4 223.781 149.883 222.301 149.883 220.476C149.883 218.65 148.4 217.17 146.571 217.17C144.742 217.17 143.26 218.65 143.26 220.476C143.26 222.301 144.742 223.781 146.571 223.781Z" fill="#E6F9FC"/>
<path d="M162.049 327.012C162.049 328.842 160.571 330.317 158.737 330.317C156.904 330.317 155.426 328.842 155.426 327.012C155.426 325.182 156.917 323.707 158.737 323.707C160.571 323.707 162.049 325.182 162.049 327.012Z" fill="#E6F9FC"/>
<path d="M107.886 386.467C109.715 386.467 111.197 384.988 111.197 383.162C111.197 381.337 109.715 379.857 107.886 379.857C106.057 379.857 104.574 381.337 104.574 383.162C104.574 384.988 106.057 386.467 107.886 386.467Z" fill="#E6F9FC"/>
<path d="M155.726 441.552C155.726 443.792 153.906 445.595 151.676 445.595C149.431 445.595 147.625 443.779 147.625 441.552C147.625 439.312 149.445 437.509 151.676 437.509C153.906 437.509 155.726 439.326 155.726 441.552Z" fill="#E6F9FC"/>
<path d="M69.1193 388.544C69.1193 390.374 67.6414 391.849 65.8077 391.849C63.974 391.849 62.4961 390.374 62.4961 388.544C62.4961 386.713 63.974 385.238 65.8077 385.238C67.6414 385.238 69.1193 386.713 69.1193 388.544Z" fill="#E6F9FC"/>
<path d="M107.886 386.467C109.715 386.467 111.197 384.988 111.197 383.162C111.197 381.337 109.715 379.857 107.886 379.857C106.057 379.857 104.574 381.337 104.574 383.162C104.574 384.988 106.057 386.467 107.886 386.467Z" fill="#E6F9FC"/>
<path d="M103.207 286.405C103.207 288.235 101.729 289.711 99.8956 289.711C98.0619 289.711 96.584 288.235 96.584 286.405C96.584 284.575 98.0619 283.1 99.8956 283.1C101.729 283.1 103.207 284.589 103.207 286.405Z" fill="#E6F9FC"/>
<path d="M162.049 327.012C162.049 328.842 160.571 330.317 158.737 330.317C156.904 330.317 155.426 328.842 155.426 327.012C155.426 325.182 156.917 323.707 158.737 323.707C160.571 323.707 162.049 325.182 162.049 327.012Z" fill="#E6F9FC"/>
<path d="M59.2658 332.776C59.2658 334.606 57.7879 336.081 55.9542 336.081C54.1205 336.081 52.6426 334.606 52.6426 332.776C52.6426 330.946 54.1205 329.47 55.9542 329.47C57.7879 329.47 59.2658 330.946 59.2658 332.776Z" fill="#E6F9FC"/>
<path d="M107.886 386.467C109.715 386.467 111.197 384.988 111.197 383.162C111.197 381.337 109.715 379.857 107.886 379.857C106.057 379.857 104.574 381.337 104.574 383.162C104.574 384.988 106.057 386.467 107.886 386.467Z" fill="#E6F9FC"/>
<path d="M30.9669 334.388C30.9669 336.218 29.489 337.693 27.6553 337.693C25.8216 337.693 24.3438 336.218 24.3438 334.388C24.3438 332.557 25.8216 331.082 27.6553 331.082C29.489 331.082 30.9669 332.557 30.9669 334.388Z" fill="#E6F9FC"/>
<path d="M69.1193 388.544C69.1193 390.374 67.6414 391.849 65.8077 391.849C63.974 391.849 62.4961 390.374 62.4961 388.544C62.4961 386.713 63.974 385.238 65.8077 385.238C67.6414 385.238 69.1193 386.713 69.1193 388.544Z" fill="#E6F9FC"/>
<path d="M59.2658 332.776C59.2658 334.606 57.7879 336.081 55.9542 336.081C54.1205 336.081 52.6426 334.606 52.6426 332.776C52.6426 330.946 54.1205 329.47 55.9542 329.47C57.7879 329.47 59.2658 330.946 59.2658 332.776Z" fill="#E6F9FC"/>
<path d="M30.9669 334.388C30.9669 336.218 29.489 337.693 27.6553 337.693C25.8216 337.693 24.3438 336.218 24.3438 334.388C24.3438 332.557 25.8216 331.082 27.6553 331.082C29.489 331.082 30.9669 332.557 30.9669 334.388Z" fill="#E6F9FC"/>
<path d="M8.52552 272.351C8.52552 274.181 7.04762 275.656 5.21393 275.656C3.38024 275.656 1.90234 274.181 1.90234 272.351C1.90234 270.52 3.38024 269.045 5.21393 269.045C7.03393 269.045 8.52552 270.52 8.52552 272.351Z" fill="#E6F9FC"/>
<path d="M60.293 332.776C60.293 335.166 58.3498 337.106 55.9551 337.106C53.5603 337.106 51.6172 335.166 51.6172 332.776C51.6172 330.386 53.5603 328.446 55.9551 328.446C58.3498 328.446 60.293 330.386 60.293 332.776Z" fill="#E6F9FC"/>
<path d="M103.207 286.405C103.207 288.235 101.729 289.711 99.8956 289.711C98.0619 289.711 96.584 288.235 96.584 286.405C96.584 284.575 98.0619 283.1 99.8956 283.1C101.729 283.1 103.207 284.589 103.207 286.405Z" fill="#E6F9FC"/>
<path d="M231.154 202.87C231.154 204.7 229.677 206.175 227.843 206.175C226.009 206.175 224.531 204.7 224.531 202.87C224.531 201.04 226.009 199.564 227.843 199.564C229.677 199.564 231.154 201.04 231.154 202.87Z" fill="#E6F9FC"/>
<path d="M344.869 165.35C344.869 167.18 343.391 168.655 341.558 168.655C339.724 168.655 338.246 167.18 338.246 165.35C338.246 163.52 339.724 162.045 341.558 162.045C343.391 162.045 344.869 163.52 344.869 165.35Z" fill="#E6F9FC"/>
<path d="M454.138 200.616C454.138 201.736 453.235 202.638 452.113 202.638C450.991 202.638 450.088 201.736 450.088 200.616C450.088 199.496 450.991 198.595 452.113 198.595C453.235 198.595 454.138 199.496 454.138 200.616Z" fill="#E6F9FC"/>
<path d="M452.689 253.447C454.517 253.447 456 251.967 456 250.142C456 248.316 454.517 246.837 452.689 246.837C450.86 246.837 449.377 248.316 449.377 250.142C449.377 251.967 450.86 253.447 452.689 253.447Z" fill="#E6F9FC"/>
<path d="M429.303 120.277C429.303 122.107 427.825 123.582 425.991 123.582C424.158 123.582 422.68 122.107 422.68 120.277C422.68 118.447 424.158 116.971 425.991 116.971C427.811 116.971 429.303 118.46 429.303 120.277Z" fill="#E6F9FC"/>
<path d="M344.869 165.35C344.869 167.18 343.391 168.655 341.558 168.655C339.724 168.655 338.246 167.18 338.246 165.35C338.246 163.52 339.724 162.045 341.558 162.045C343.391 162.045 344.869 163.52 344.869 165.35Z" fill="#E6F9FC"/>
<path d="M409.5 194.443C409.5 196.273 408.022 197.748 406.189 197.748C404.355 197.748 402.877 196.273 402.877 194.443C402.877 192.612 404.355 191.137 406.189 191.137C408.022 191.137 409.5 192.612 409.5 194.443Z" fill="#E6F9FC"/>
<path d="M450.115 172.643C450.115 174.474 448.638 175.949 446.804 175.949C444.97 175.949 443.492 174.474 443.492 172.643C443.492 170.813 444.97 169.338 446.804 169.338C448.638 169.338 450.115 170.827 450.115 172.643Z" fill="#E6F9FC"/>
<path d="M429.303 120.277C429.303 122.107 427.825 123.582 425.991 123.582C424.158 123.582 422.68 122.107 422.68 120.277C422.68 118.447 424.158 116.971 425.991 116.971C427.811 116.971 429.303 118.46 429.303 120.277Z" fill="#E6F9FC"/>
<path d="M409.5 194.443C409.5 196.273 408.022 197.748 406.189 197.748C404.355 197.748 402.877 196.273 402.877 194.443C402.877 192.612 404.355 191.137 406.189 191.137C408.022 191.137 409.5 192.612 409.5 194.443Z" fill="#E6F9FC"/>
<path d="M253.281 79.2056C253.281 81.0359 251.803 82.511 249.97 82.511C248.136 82.511 246.658 81.0359 246.658 79.2056C246.658 77.3754 248.136 75.9003 249.97 75.9003C251.79 75.9003 253.281 77.3891 253.281 79.2056Z" fill="#E6F9FC"/>
<path d="M429.303 120.277C429.303 122.107 427.825 123.582 425.991 123.582C424.158 123.582 422.68 122.107 422.68 120.277C422.68 118.447 424.158 116.971 425.991 116.971C427.811 116.971 429.303 118.46 429.303 120.277Z" fill="#E6F9FC"/>
<path d="M344.869 165.35C344.869 167.18 343.391 168.655 341.558 168.655C339.724 168.655 338.246 167.18 338.246 165.35C338.246 163.52 339.724 162.045 341.558 162.045C343.391 162.045 344.869 163.52 344.869 165.35Z" fill="#E6F9FC"/>
<path d="M342.119 32.2204C342.119 34.0506 340.641 35.5258 338.808 35.5258C336.974 35.5258 335.496 34.0506 335.496 32.2204C335.496 30.3902 336.974 28.915 338.808 28.915C340.641 28.915 342.119 30.4038 342.119 32.2204Z" fill="#E6F9FC"/>
<path d="M394.024 72.4447C394.024 73.8925 392.847 75.0535 391.411 75.0535C389.96 75.0535 388.797 73.8789 388.797 72.4447C388.797 71.0106 389.974 69.8359 391.411 69.8359C392.847 69.8223 394.024 70.9969 394.024 72.4447Z" fill="#E6F9FC"/>
<path d="M271.249 31.3463C273.078 31.3463 274.561 29.8665 274.561 28.041C274.561 26.2155 273.078 24.7356 271.249 24.7356C269.42 24.7356 267.938 26.2155 267.938 28.041C267.938 29.8665 269.42 31.3463 271.249 31.3463Z" fill="#E6F9FC"/>
<path d="M284.647 9.41071C284.647 11.2409 283.169 12.7161 281.335 12.7161C279.501 12.7161 278.023 11.2409 278.023 9.41071C278.023 7.58047 279.501 6.10535 281.335 6.10535C283.169 6.10535 284.647 7.59412 284.647 9.41071Z" fill="#E6F9FC"/>
<path d="M315.75 46.4662C316.853 46.4662 317.748 45.5734 317.748 44.472C317.748 43.3707 316.853 42.4779 315.75 42.4779C314.646 42.4779 313.752 43.3707 313.752 44.472C313.752 45.5734 314.646 46.4662 315.75 46.4662Z" fill="#E6F9FC"/>
<path d="M341.244 53.2136C341.244 54.2789 340.382 55.1258 339.328 55.1258C338.261 55.1258 337.412 54.2653 337.412 53.2136C337.412 52.1619 338.274 51.3014 339.328 51.3014C340.382 51.3014 341.244 52.1619 341.244 53.2136Z" fill="#E6F9FC"/>
<path d="M339.929 102.097C340.988 102.097 341.845 101.241 341.845 100.185C341.845 99.1291 340.988 98.2729 339.929 98.2729C338.871 98.2729 338.014 99.1291 338.014 100.185C338.014 101.241 338.871 102.097 339.929 102.097Z" fill="#E6F9FC"/>
<path d="M339.752 76.6379C340.81 76.6379 341.668 75.7817 341.668 74.7257C341.668 73.6696 340.81 72.8135 339.752 72.8135C338.694 72.8135 337.836 73.6696 337.836 74.7257C337.836 75.7817 338.694 76.6379 339.752 76.6379Z" fill="#E6F9FC"/>
<path d="M372.224 109.746C373.283 109.746 374.14 108.89 374.14 107.834C374.14 106.778 373.283 105.922 372.224 105.922C371.166 105.922 370.309 106.778 370.309 107.834C370.309 108.89 371.166 109.746 372.224 109.746Z" fill="#E6F9FC"/>
<path d="M396.24 115.114C397.298 115.114 398.156 114.258 398.156 113.202C398.156 112.146 397.298 111.29 396.24 111.29C395.182 111.29 394.324 112.146 394.324 113.202C394.324 114.258 395.182 115.114 396.24 115.114Z" fill="#E6F9FC"/>
<path d="M401.058 134.7C401.058 135.766 400.196 136.612 399.142 136.612C398.075 136.612 397.227 135.752 397.227 134.7C397.227 133.635 398.089 132.788 399.142 132.788C400.196 132.774 401.058 133.635 401.058 134.7Z" fill="#E6F9FC"/>
<path d="M405.054 187.244C406.113 187.244 406.97 186.388 406.97 185.332C406.97 184.276 406.113 183.42 405.054 183.42C403.996 183.42 403.139 184.276 403.139 185.332C403.139 186.388 403.996 187.244 405.054 187.244Z" fill="#E6F9FC"/>
<path d="M418.15 189.211C418.15 190.277 417.288 191.123 416.234 191.123C415.167 191.123 414.318 190.263 414.318 189.211C414.318 188.16 415.18 187.299 416.234 187.299C417.288 187.285 418.15 188.146 418.15 189.211Z" fill="#E6F9FC"/>
<path d="M366.053 221.391C367.111 221.391 367.968 220.535 367.968 219.479C367.968 218.423 367.111 217.566 366.053 217.566C364.994 217.566 364.137 218.423 364.137 219.479C364.137 220.535 364.994 221.391 366.053 221.391Z" fill="#E6F9FC"/>
<path d="M415.097 257.818C416.155 257.818 417.013 256.962 417.013 255.906C417.013 254.85 416.155 253.994 415.097 253.994C414.039 253.994 413.182 254.85 413.182 255.906C413.182 256.962 414.039 257.818 415.097 257.818Z" fill="#E6F9FC"/>
<path d="M420.668 281.406C420.668 282.472 419.805 283.318 418.752 283.318C417.698 283.318 416.836 282.458 416.836 281.406C416.836 280.354 417.698 279.494 418.752 279.494C419.805 279.494 420.668 280.341 420.668 281.406Z" fill="#E6F9FC"/>
<path d="M362.414 313.135C363.472 313.135 364.33 312.279 364.33 311.223C364.33 310.167 363.472 309.311 362.414 309.311C361.356 309.311 360.498 310.167 360.498 311.223C360.498 312.279 361.356 313.135 362.414 313.135Z" fill="#E6F9FC"/>
<path d="M328.886 320.415C329.945 320.415 330.802 319.559 330.802 318.503C330.802 317.447 329.945 316.591 328.886 316.591C327.828 316.591 326.971 317.447 326.971 318.503C326.971 319.559 327.828 320.415 328.886 320.415Z" fill="#E6F9FC"/>
<path d="M266.39 405.562C267.448 405.562 268.306 404.706 268.306 403.65C268.306 402.594 267.448 401.738 266.39 401.738C265.332 401.738 264.475 402.594 264.475 403.65C264.475 404.706 265.332 405.562 266.39 405.562Z" fill="#E6F9FC"/>
<path d="M259.781 380.062C260.839 380.062 261.697 379.206 261.697 378.149C261.697 377.093 260.839 376.237 259.781 376.237C258.723 376.237 257.865 377.093 257.865 378.149C257.865 379.206 258.723 380.062 259.781 380.062Z" fill="#E6F9FC"/>
<path d="M202.992 382.11C204.05 382.11 204.908 381.254 204.908 380.198C204.908 379.142 204.05 378.286 202.992 378.286C201.934 378.286 201.076 379.142 201.076 380.198C201.076 381.254 201.934 382.11 202.992 382.11Z" fill="#E6F9FC"/>
<path d="M155.193 412.979C155.193 414.044 154.331 414.891 153.277 414.891C152.21 414.891 151.361 414.03 151.361 412.979C151.361 411.927 152.223 411.066 153.277 411.066C154.331 411.066 155.193 411.927 155.193 412.979Z" fill="#E6F9FC"/>
<path d="M124.076 406.696C125.134 406.696 125.992 405.84 125.992 404.784C125.992 403.727 125.134 402.871 124.076 402.871C123.018 402.871 122.16 403.727 122.16 404.784C122.16 405.84 123.018 406.696 124.076 406.696Z" fill="#E6F9FC"/>
<path d="M155.549 383.708C156.607 383.708 157.464 382.852 157.464 381.796C157.464 380.74 156.607 379.884 155.549 379.884C154.491 379.884 153.633 380.74 153.633 381.796C153.633 382.852 154.491 383.708 155.549 383.708Z" fill="#E6F9FC"/>
<path d="M60.4431 355.476C61.5012 355.476 62.3589 354.62 62.3589 353.564C62.3589 352.508 61.5012 351.652 60.4431 351.652C59.3851 351.652 58.5273 352.508 58.5273 353.564C58.5273 354.62 59.3851 355.476 60.4431 355.476Z" fill="#E6F9FC"/>
<path d="M52.9177 351.83C53.9758 351.83 54.8335 350.973 54.8335 349.917C54.8335 348.861 53.9758 348.005 52.9177 348.005C51.8597 348.005 51.002 348.861 51.002 349.917C51.002 350.973 51.8597 351.83 52.9177 351.83Z" fill="#E6F9FC"/>
<path d="M47.4431 335.221C48.5012 335.221 49.3589 334.365 49.3589 333.309C49.3589 332.252 48.5012 331.396 47.4431 331.396C46.3851 331.396 45.5273 332.252 45.5273 333.309C45.5273 334.365 46.3851 335.221 47.4431 335.221Z" fill="#E6F9FC"/>
<path d="M43.6656 316.454C43.6656 317.519 42.8035 318.366 41.7498 318.366C40.6961 318.366 39.834 317.506 39.834 316.454C39.834 315.389 40.6961 314.542 41.7498 314.542C42.8035 314.542 43.6656 315.402 43.6656 316.454Z" fill="#E6F9FC"/>
<path d="M28.5174 277.855C29.5754 277.855 30.4331 276.999 30.4331 275.943C30.4331 274.887 29.5754 274.031 28.5174 274.031C27.4593 274.031 26.6016 274.887 26.6016 275.943C26.6016 276.999 27.4593 277.855 28.5174 277.855Z" fill="#E6F9FC"/>
<path d="M25.0974 266.696C26.1555 266.696 27.0132 265.84 27.0132 264.784C27.0132 263.728 26.1555 262.872 25.0974 262.872C24.0394 262.872 23.1816 263.728 23.1816 264.784C23.1816 265.84 24.0394 266.696 25.0974 266.696Z" fill="#E6F9FC"/>
<path d="M105.246 330.113C105.246 331.178 104.384 332.025 103.33 332.025C102.262 332.025 101.414 331.164 101.414 330.113C101.414 329.047 102.276 328.2 103.33 328.2C104.384 328.2 105.246 329.061 105.246 330.113Z" fill="#E6F9FC"/>
<path d="M66.8338 251.672C67.8918 251.672 68.7496 250.816 68.7496 249.759C68.7496 248.703 67.8918 247.847 66.8338 247.847C65.7757 247.847 64.918 248.703 64.918 249.759C64.918 250.816 65.7757 251.672 66.8338 251.672Z" fill="#E6F9FC"/>
<path d="M19.0347 239.748C19.0347 240.813 18.1726 241.66 17.1189 241.66C16.0515 241.66 15.2031 240.8 15.2031 239.748C15.2031 238.696 16.0652 237.836 17.1189 237.836C18.1726 237.822 19.0347 238.682 19.0347 239.748Z" fill="#E6F9FC"/>
<path d="M34.1834 150.886C35.2414 150.886 36.0992 150.029 36.0992 148.973C36.0992 147.917 35.2414 147.061 34.1834 147.061C33.1253 147.061 32.2676 147.917 32.2676 148.973C32.2676 150.029 33.1253 150.886 34.1834 150.886Z" fill="#E6F9FC"/>
<path d="M74.3611 92.7823C75.4192 92.7823 76.2769 91.9262 76.2769 90.8701C76.2769 89.814 75.4192 88.9579 74.3611 88.9579C73.303 88.9579 72.4453 89.814 72.4453 90.8701C72.4453 91.9262 73.303 92.7823 74.3611 92.7823Z" fill="#E6F9FC"/>
<path d="M37.7281 125.918C37.7281 126.983 36.866 127.83 35.8123 127.83C34.7449 127.83 33.8965 126.97 33.8965 125.918C33.8965 124.852 34.7586 124.006 35.8123 124.006C36.866 124.006 37.7281 124.866 37.7281 125.918Z" fill="#E6F9FC"/>
<path d="M91.4646 77.075C92.5227 77.075 93.3804 76.2189 93.3804 75.1628C93.3804 74.1067 92.5227 73.2506 91.4646 73.2506C90.4065 73.2506 89.5488 74.1067 89.5488 75.1628C89.5488 76.2189 90.4065 77.075 91.4646 77.075Z" fill="#E6F9FC"/>
<path d="M60.5386 105.43C60.5386 106.495 59.6765 107.342 58.6228 107.342C57.5555 107.342 56.707 106.482 56.707 105.43C56.707 104.365 57.5691 103.518 58.6228 103.518C59.6765 103.518 60.5386 104.378 60.5386 105.43Z" fill="#E6F9FC"/>
<path d="M163.623 42.2458C163.623 43.3112 162.761 44.158 161.707 44.158C160.653 44.158 159.791 43.2975 159.791 42.2458C159.791 41.1941 160.653 40.3336 161.707 40.3336C162.761 40.3336 163.623 41.1941 163.623 42.2458Z" fill="#E6F9FC"/>
<path d="M170.464 27.358C170.464 28.4234 169.602 29.2702 168.549 29.2702C167.495 29.2702 166.633 28.4097 166.633 27.358C166.633 26.2926 167.495 25.4458 168.549 25.4458C169.602 25.4458 170.464 26.2926 170.464 27.358Z" fill="#E6F9FC"/>
<path d="M138.211 34.7336C139.269 34.7336 140.127 33.8774 140.127 32.8214C140.127 31.7653 139.269 30.9092 138.211 30.9092C137.153 30.9092 136.295 31.7653 136.295 32.8214C136.295 33.8774 137.153 34.7336 138.211 34.7336Z" fill="#E6F9FC"/>
<path d="M127.728 44.2946C128.786 44.2946 129.644 43.4385 129.644 42.3824C129.644 41.3263 128.786 40.4702 127.728 40.4702C126.67 40.4702 125.812 41.3263 125.812 42.3824C125.812 43.4385 126.67 44.2946 127.728 44.2946Z" fill="#E6F9FC"/>
<path d="M144.15 29.038C145.208 29.038 146.066 28.1819 146.066 27.1258C146.066 26.0697 145.208 25.2136 144.15 25.2136C143.092 25.2136 142.234 26.0697 142.234 27.1258C142.234 28.1819 143.092 29.038 144.15 29.038Z" fill="#E6F9FC"/>
<path d="M229.306 27.5765C229.306 28.6419 228.444 29.4887 227.39 29.4887C226.323 29.4887 225.475 28.6282 225.475 27.5765C225.475 26.5248 226.337 25.6643 227.39 25.6643C228.444 25.6643 229.306 26.5248 229.306 27.5765Z" fill="#E6F9FC"/>
<path d="M188.035 119.088C188.035 120.154 187.173 121.001 186.119 121.001C185.065 121.001 184.203 120.14 184.203 119.088C184.203 118.023 185.065 117.176 186.119 117.176C187.173 117.176 188.035 118.037 188.035 119.088Z" fill="#E6F9FC"/>
<path d="M162.623 135.574C163.681 135.574 164.539 134.718 164.539 133.662C164.539 132.606 163.681 131.75 162.623 131.75C161.565 131.75 160.707 132.606 160.707 133.662C160.707 134.718 161.565 135.574 162.623 135.574Z" fill="#E6F9FC"/>
<path d="M241.855 134.796C241.855 135.861 240.993 136.708 239.939 136.708C238.872 136.708 238.023 135.848 238.023 134.796C238.023 133.73 238.886 132.884 239.939 132.884C240.993 132.884 241.855 133.744 241.855 134.796Z" fill="#E6F9FC"/>
<path d="M276.886 19.4771C277.945 19.4771 278.802 18.621 278.802 17.5649C278.802 16.5088 277.945 15.6527 276.886 15.6527C275.828 15.6527 274.971 16.5088 274.971 17.5649C274.971 18.621 275.828 19.4771 276.886 19.4771Z" fill="#E6F9FC"/>
<path d="M342.119 32.2204C342.119 34.0506 340.641 35.5258 338.808 35.5258C336.974 35.5258 335.496 34.0506 335.496 32.2204C335.496 30.3902 336.974 28.915 338.808 28.915C340.641 28.915 342.119 30.4038 342.119 32.2204Z" fill="#E6F9FC"/>
<path d="M220.002 3.30536C220.002 5.1356 218.524 6.61072 216.691 6.61072C214.857 6.61072 213.379 5.1356 213.379 3.30536C213.379 1.47512 214.857 0 216.691 0C218.524 0 220.002 1.47512 220.002 3.30536Z" fill="#E6F9FC"/>
<path d="M271.249 31.3463C273.078 31.3463 274.561 29.8665 274.561 28.041C274.561 26.2155 273.078 24.7356 271.249 24.7356C269.42 24.7356 267.938 26.2155 267.938 28.041C267.938 29.8665 269.42 31.3463 271.249 31.3463Z" fill="#E6F9FC"/>
<path d="M343.829 32.2204C343.829 34.9931 341.585 37.2331 338.807 37.2331C336.029 37.2331 333.785 34.9931 333.785 32.2204C333.785 29.4478 336.029 27.2078 338.807 27.2078C341.585 27.2078 343.829 29.4614 343.829 32.2204Z" fill="#E6F9FC"/>
<path d="M253.281 79.2056C253.281 81.0359 251.803 82.511 249.97 82.511C248.136 82.511 246.658 81.0359 246.658 79.2056C246.658 77.3754 248.136 75.9003 249.97 75.9003C251.79 75.9003 253.281 77.3891 253.281 79.2056Z" fill="#E6F9FC"/>
<path d="M349.44 173.815C354.114 169.472 354.376 162.169 350.024 157.504C345.673 152.838 338.356 152.577 333.682 156.921C329.008 161.264 328.746 168.567 333.098 173.232C337.449 177.897 344.766 178.158 349.44 173.815Z" fill="#E6F9FC"/>
<path d="M133.886 106.468C135.715 106.468 137.197 104.988 137.197 103.163C137.197 101.337 135.715 99.8573 133.886 99.8573C132.057 99.8573 130.574 101.337 130.574 103.163C130.574 104.988 132.057 106.468 133.886 106.468Z" fill="#E6F9FC"/>
<path d="M231.154 202.87C231.154 204.7 229.677 206.175 227.843 206.175C226.009 206.175 224.531 204.7 224.531 202.87C224.531 201.04 226.009 199.564 227.843 199.564C229.677 199.564 231.154 201.04 231.154 202.87Z" fill="#E6F9FC"/>
<path d="M253.281 79.2056C253.281 81.0359 251.803 82.511 249.97 82.511C248.136 82.511 246.658 81.0359 246.658 79.2056C246.658 77.3754 248.136 75.9003 249.97 75.9003C251.79 75.9003 253.281 77.3891 253.281 79.2056Z" fill="#E6F9FC"/>
<path d="M112.102 167.126C112.102 168.956 110.624 170.431 108.79 170.431C106.956 170.431 105.479 168.956 105.479 167.126C105.479 165.295 106.956 163.82 108.79 163.82C110.624 163.82 112.102 165.295 112.102 167.126Z" fill="#E6F9FC"/>
<path d="M146.571 223.781C148.4 223.781 149.883 222.301 149.883 220.476C149.883 218.65 148.4 217.17 146.571 217.17C144.742 217.17 143.26 218.65 143.26 220.476C143.26 222.301 144.742 223.781 146.571 223.781Z" fill="#E6F9FC"/>
<path d="M236.737 202.87C236.737 207.773 232.755 211.748 227.842 211.748C222.929 211.748 218.947 207.773 218.947 202.87C218.947 197.966 222.929 193.992 227.842 193.992C232.755 193.992 236.737 197.966 236.737 202.87Z" fill="#E6F9FC"/>
<path d="M112.102 167.126C112.102 168.956 110.624 170.431 108.79 170.431C106.956 170.431 105.479 168.956 105.479 167.126C105.479 165.295 106.956 163.82 108.79 163.82C110.624 163.82 112.102 165.295 112.102 167.126Z" fill="#E6F9FC"/>
<path d="M103.207 286.405C103.207 288.235 101.729 289.711 99.8956 289.711C98.0619 289.711 96.584 288.235 96.584 286.405C96.584 284.575 98.0619 283.1 99.8956 283.1C101.729 283.1 103.207 284.589 103.207 286.405Z" fill="#E6F9FC"/>
<path d="M146.572 224.997C149.074 224.997 151.102 222.972 151.102 220.476C151.102 217.979 149.074 215.955 146.572 215.955C144.071 215.955 142.043 217.979 142.043 220.476C142.043 222.972 144.071 224.997 146.572 224.997Z" fill="#E6F9FC"/>
<path d="M8.52552 272.351C8.52552 274.181 7.04762 275.656 5.21393 275.656C3.38024 275.656 1.90234 274.181 1.90234 272.351C1.90234 270.52 3.38024 269.045 5.21393 269.045C7.03393 269.045 8.52552 270.52 8.52552 272.351Z" fill="#E6F9FC"/>
<path d="M109.674 288.727C110.952 283.339 107.613 277.937 102.215 276.66C96.8169 275.384 91.4044 278.717 90.1257 284.105C88.8471 289.493 92.1865 294.895 97.5846 296.172C102.983 297.448 108.395 294.115 109.674 288.727Z" fill="#E6F9FC"/>
<path d="M31.8986 207.418C31.8986 209.248 30.4207 210.723 28.587 210.723C26.7533 210.723 25.2754 209.248 25.2754 207.418C25.2754 205.588 26.7533 204.113 28.587 204.113C30.4207 204.113 31.8986 205.588 31.8986 207.418Z" fill="#E6F9FC"/>
<path d="M6.62317 199.428C6.62317 201.258 5.14528 202.733 3.31159 202.733C1.4779 202.733 0 201.258 0 199.428C0 197.598 1.4779 196.123 3.31159 196.123C5.14528 196.123 6.62317 197.611 6.62317 199.428Z" fill="#E6F9FC"/>
<path d="M8.52552 272.351C8.52552 274.181 7.04762 275.656 5.21393 275.656C3.38024 275.656 1.90234 274.181 1.90234 272.351C1.90234 270.52 3.38024 269.045 5.21393 269.045C7.03393 269.045 8.52552 270.52 8.52552 272.351Z" fill="#E6F9FC"/>
<path d="M31.8986 207.418C31.8986 209.248 30.4207 210.723 28.587 210.723C26.7533 210.723 25.2754 209.248 25.2754 207.418C25.2754 205.588 26.7533 204.113 28.587 204.113C30.4207 204.113 31.8986 205.588 31.8986 207.418Z" fill="#E6F9FC"/>
<path d="M112.102 167.126C112.102 168.956 110.624 170.431 108.79 170.431C106.956 170.431 105.479 168.956 105.479 167.126C105.479 165.295 106.956 163.82 108.79 163.82C110.624 163.82 112.102 165.295 112.102 167.126Z" fill="#E6F9FC"/>
<path d="M19.213 144.247C19.213 146.078 17.7351 147.553 15.9014 147.553C14.0677 147.553 12.5898 146.078 12.5898 144.247C12.5898 142.417 14.0677 140.942 15.9014 140.942C17.7351 140.942 19.213 142.417 19.213 144.247Z" fill="#E6F9FC"/>
<path d="M31.8986 207.418C31.8986 209.248 30.4207 210.723 28.587 210.723C26.7533 210.723 25.2754 209.248 25.2754 207.418C25.2754 205.588 26.7533 204.113 28.587 204.113C30.4207 204.113 31.8986 205.588 31.8986 207.418Z" fill="#E6F9FC"/>
<path d="M19.213 144.247C19.213 146.078 17.7351 147.553 15.9014 147.553C14.0677 147.553 12.5898 146.078 12.5898 144.247C12.5898 142.417 14.0677 140.942 15.9014 140.942C17.7351 140.942 19.213 142.417 19.213 144.247Z" fill="#E6F9FC"/>
<path d="M55.3526 117.245C57.1815 117.245 58.6642 115.765 58.6642 113.939C58.6642 112.114 57.1815 110.634 55.3526 110.634C53.5237 110.634 52.041 112.114 52.041 113.939C52.041 115.765 53.5237 117.245 55.3526 117.245Z" fill="#E6F9FC"/>
<path d="M37.6176 108.845C39.0687 108.845 40.245 107.67 40.245 106.222C40.245 104.774 39.0687 103.6 37.6176 103.6C36.1666 103.6 34.9902 104.774 34.9902 106.222C34.9902 107.67 36.1666 108.845 37.6176 108.845Z" fill="#E6F9FC"/>
<path d="M116.303 167.125C116.303 171.264 112.936 174.624 108.79 174.624C104.644 174.624 101.277 171.264 101.277 167.125C101.277 162.987 104.644 159.627 108.79 159.627C112.936 159.627 116.303 162.987 116.303 167.125Z" fill="#E6F9FC"/>
<path d="M133.886 106.468C135.715 106.468 137.197 104.988 137.197 103.163C137.197 101.337 135.715 99.8573 133.886 99.8573C132.057 99.8573 130.574 101.337 130.574 103.163C130.574 104.988 132.057 106.468 133.886 106.468Z" fill="#E6F9FC"/>
<path d="M253.281 79.2056C253.281 81.0359 251.803 82.511 249.97 82.511C248.136 82.511 246.658 81.0359 246.658 79.2056C246.658 77.3754 248.136 75.9003 249.97 75.9003C251.79 75.9003 253.281 77.3891 253.281 79.2056Z" fill="#E6F9FC"/>
<path d="M271.248 32.5618C273.75 32.5618 275.778 30.5377 275.778 28.0409C275.778 25.544 273.75 23.5199 271.248 23.5199C268.747 23.5199 266.719 25.544 266.719 28.0409C266.719 30.5377 268.747 32.5618 271.248 32.5618Z" fill="#E6F9FC"/>
<path d="M125.923 30.5404C127.752 30.5404 129.234 29.0605 129.234 27.235C129.234 25.4095 127.752 23.9297 125.923 23.9297C124.094 23.9297 122.611 25.4095 122.611 27.235C122.611 29.0605 124.094 30.5404 125.923 30.5404Z" fill="#E6F9FC"/>
<path d="M133.886 106.468C135.715 106.468 137.197 104.988 137.197 103.163C137.197 101.337 135.715 99.8573 133.886 99.8573C132.057 99.8573 130.574 101.337 130.574 103.163C130.574 104.988 132.057 106.468 133.886 106.468Z" fill="#E6F9FC"/>
<path d="M73.9493 65.4243C75.2039 65.4243 76.2209 64.4092 76.2209 63.157C76.2209 61.9048 75.2039 60.8896 73.9493 60.8896C72.6948 60.8896 71.6777 61.9048 71.6777 63.157C71.6777 64.4092 72.6948 65.4243 73.9493 65.4243Z" fill="#E6F9FC"/>
<path d="M125.923 30.5404C127.752 30.5404 129.234 29.0605 129.234 27.235C129.234 25.4095 127.752 23.9297 125.923 23.9297C124.094 23.9297 122.611 25.4095 122.611 27.235C122.611 29.0605 124.094 30.5404 125.923 30.5404Z" fill="#E6F9FC"/>
<path d="M133.886 106.468C135.715 106.468 137.197 104.988 137.197 103.163C137.197 101.337 135.715 99.8573 133.886 99.8573C132.057 99.8573 130.574 101.337 130.574 103.163C130.574 104.988 132.057 106.468 133.886 106.468Z" fill="#E6F9FC"/>
<path d="M180.412 8.64581C180.412 10.4761 178.934 11.9512 177.101 11.9512C175.267 11.9512 173.789 10.4761 173.789 8.64581C173.789 6.81557 175.267 5.34045 177.101 5.34045C178.934 5.34045 180.412 6.82923 180.412 8.64581Z" fill="#E6F9FC"/>
<path d="M255.991 79.2057C255.991 82.5247 253.296 85.2154 249.97 85.2154C246.645 85.2154 243.949 82.5247 243.949 79.2057C243.949 75.8867 246.645 73.1959 249.97 73.1959C253.296 73.1959 255.991 75.8867 255.991 79.2057Z" fill="#E6F9FC"/>
<path d="M220.002 3.30536C220.002 5.1356 218.524 6.61072 216.691 6.61072C214.857 6.61072 213.379 5.1356 213.379 3.30536C213.379 1.47512 214.857 0 216.691 0C218.524 0 220.002 1.47512 220.002 3.30536Z" fill="#E6F9FC"/>
<path d="M125.922 31.9746C128.545 31.9746 130.671 29.8527 130.671 27.2351C130.671 24.6176 128.545 22.4956 125.922 22.4956C123.3 22.4956 121.174 24.6176 121.174 27.2351C121.174 29.8527 123.3 31.9746 125.922 31.9746Z" fill="#E6F9FC"/>
<path d="M233.12 70.9524H211.147C209.387 70.9524 208 69.5124 208 67.8056V52.2325C208 50.4725 209.44 49.0857 211.147 49.0857H233.067C234.827 49.0857 236.214 50.5257 236.214 52.2325V67.7526C236.267 69.5126 234.827 70.9526 233.12 70.9526L233.12 70.9524Z" fill="#AEECF5"/>
<path d="M238.4 55.2724V64.7655L247.2 69.7258C247.574 69.9391 248 69.6726 248 69.2458V50.7918C248 50.365 247.574 50.1518 247.2 50.3118L238.4 55.2724Z" fill="#AEECF5"/>
<path fill-rule="evenodd" clip-rule="evenodd" d="M25.8327 240V229.167C25.8327 225.945 23.221 223.333 19.9993 223.333C16.7777 223.333 14.166 225.945 14.166 229.167V240C14.166 243.222 16.7777 245.833 19.9993 245.833C23.221 245.833 25.8327 243.222 25.8327 240Z" fill="#AEECF5"/>
<path d="M24.1667 229.167V240H27.5V229.167H24.1667ZM20 225C22.3012 225 24.1667 226.865 24.1667 229.167H27.5C27.5 225.024 24.1422 221.667 20 221.667V225ZM15.8333 229.167C15.8333 226.865 17.6988 225 20 225V221.667C15.8578 221.667 12.5 225.024 12.5 229.167H15.8333ZM15.8333 240V229.167H12.5V240H15.8333ZM12.5 240C12.5 244.142 15.8578 247.5 20 247.5V244.167C17.6988 244.167 15.8333 242.301 15.8333 240H12.5ZM20 247.5C24.1422 247.5 27.5 244.142 27.5 240H24.1667C24.1667 242.301 22.3012 244.167 20 244.167V247.5Z" fill="#AEECF5"/>
<path d="M7.5 239.167C7.5 246.07 13.0964 251.667 20 251.667C26.9036 251.667 32.5 246.07 32.5 239.167" stroke="#AEECF5" stroke-width="2" stroke-linecap="round" stroke-linejoin="round"/>
<path d="M20 251.667V256.667" stroke="#AEECF5" stroke-width="2" stroke-linecap="round" stroke-linejoin="round"/>
<path d="M451.621 242.6H451.034V236.541C451.034 228.171 444.316 221.371 436.045 221.371C427.774 221.371 421.057 228.18 421.057 236.541V242.6H420.47C418.032 242.6 416 244.568 416 247.024V254.13C416 256.595 418.032 258.582 420.47 258.582H425.264C425.86 258.582 426.384 258.112 426.384 257.507V243.647C426.384 243.051 425.86 242.6 425.264 242.6H423.224V236.541C423.224 229.372 428.975 223.539 436.045 223.539C443.115 223.539 448.867 229.372 448.867 236.541V242.6H446.826C446.23 242.6 445.706 243.051 445.706 243.647V257.507C445.706 258.103 446.23 258.582 446.826 258.582H451.621C454.059 258.582 456 256.595 456 254.13V247.024C456 244.568 454.059 242.6 451.621 242.6H451.621Z" fill="#AEECF5"/>
<path d="M224.133 407.019C224.401 406.751 224.764 406.6 225.143 406.6H246.571C246.95 406.6 247.314 406.45 247.582 406.182C247.849 405.914 248 405.55 248 405.171V382.314C248 381.935 247.849 381.572 247.582 381.304C247.314 381.036 246.95 380.886 246.571 380.886H209.429C209.05 380.886 208.686 381.036 208.418 381.304C208.151 381.572 208 381.935 208 382.314V405.171C208 405.55 208.151 405.914 208.418 406.182C208.686 406.45 209.05 406.6 209.429 406.6H216.571C216.95 406.6 217.314 406.751 217.582 407.018C217.849 407.286 218 407.65 218 408.029V413.151L224.133 407.019Z" fill="#AEECF5"/>
</svg>
