<svg width="1128" height="336" viewBox="0 0 1128 336" fill="none" xmlns="http://www.w3.org/2000/svg"  style="opacity:.25">
<g clip-path="url(#clip0_1346_14964)">
<g opacity="0.12">
<path fill-rule="evenodd" clip-rule="evenodd" d="M366.472 27.1113C366.387 5.29114 332.646 -19.2462 318.233 -31.8966C289.734 -56.9175 260.095 -80.0231 230.729 -103.498C201.364 -126.972 171.92 -150.383 143.918 -176.155C125.737 -192.884 104.374 -211.726 92.0433 -235.615C65.7754 -286.522 148.596 -278.962 170.049 -280.076C224.625 -282.92 287.224 -281.622 338.38 -308.132C368.919 -323.958 381.096 -350.5 374.537 -389.183C372.423 -401.763 366.165 -416.24 371.466 -428.496C377.127 -441.585 390.15 -449.139 400.958 -454.204C440.381 -472.658 485.708 -474.796 527.42 -477.112C572.397 -479.658 617.798 -478.913 662.459 -479.11C681.396 -479.193 701.174 -487.383 719.207 -494.039C742.848 -502.763 766.209 -512.563 789.655 -522.038C841.234 -542.833 894.383 -564.736 948.954 -570.018C983.128 -573.327 1020.48 -568.853 1047.03 -540.072C1060.36 -525.62 1067.33 -504.138 1075.04 -485.054C1084.37 -461.999 1093.33 -438.722 1103.26 -416.03C1135.25 -342.946 1180.93 -271.53 1255.06 -267.941C1266.28 -267.4 1277.29 -269.163 1288.45 -269.493C1295.56 -269.697 1301.89 -267.629 1304.53 -258.676C1311.18 -236.219 1290.29 -200.769 1281.73 -182.951C1262.98 -143.95 1241.84 -106.698 1222.04 -68.4798C1208.94 -43.2044 1186.26 -8.66383 1186.02 22.046C1185.81 49.4086 1216.04 69.1861 1232.5 82.6637C1247.92 95.2824 1275.87 112.941 1277.56 138.611C1278.38 151.058 1271.56 161.373 1264.44 169.378C1251.96 183.377 1237.58 193.253 1226.36 209.226C1207.95 235.43 1192.57 271.485 1195.07 306.796C1196.8 331.263 1208.4 347.286 1223.15 362.603C1229.35 369.042 1234.38 373.599 1234.71 384.054C1235.24 400.656 1229.84 418.225 1225.39 433.618C1209.47 488.706 1186.86 541.974 1161.7 591.711C1149.13 616.566 1135.56 641.345 1118.89 662.548C1107.98 676.471 1093.26 693.042 1076.61 693.022C1057.33 693.022 1036.94 684.648 1018.2 678.387C983.208 666.684 948.637 653.156 914.203 639.277C834.571 607.167 755.688 572.457 677.554 535.146C622.518 508.821 566.314 482.457 514.571 447.459C504.48 440.586 494.955 432.572 486.126 423.526C476.691 414.025 464.984 409.775 453.114 406.606C379.437 386.936 298.719 402.037 224.736 411.505C205.957 413.904 187.179 416.316 168.347 417.996C152.158 419.441 132.777 423.583 117.043 417.36C86.0392 405.11 113.142 359.962 124.601 341.565C164.943 276.792 216.993 221.991 265.237 166.043C288.175 139.4 311.288 112.826 332.979 84.6746C344.273 70.0387 366.546 46.2396 366.472 27.1113Z" stroke="black"/>
<path fill-rule="evenodd" clip-rule="evenodd" d="M380.375 23.4329C368.01 0.343951 346.315 -16.7215 328.306 -32.782C302.39 -55.9028 275.66 -77.7387 249.332 -100.204C224.437 -121.449 199.489 -142.935 176.434 -167.06C162.377 -181.773 144.738 -199.366 138.079 -221.126C123.635 -268.289 201.34 -261.134 220.523 -262.368C268.213 -265.421 322.282 -266.12 366.402 -290.952C393.952 -306.459 405.27 -332.175 399.394 -367.877C397.363 -380.229 393.703 -390.775 398.336 -403.064C403.694 -417.286 416.017 -426.153 427.314 -432.412C462.703 -452.021 504.533 -456.188 542.893 -459.654C582.523 -463.235 623.813 -465.76 662.169 -463.14C677.507 -462.097 695.161 -468.018 710.34 -472.56C733.696 -479.556 756.814 -487.628 780.053 -495.134C827.283 -510.399 875.741 -525.105 924.875 -526.777C960.347 -527.986 997.333 -521.435 1026.84 -496.113C1056.75 -470.435 1070.02 -430.631 1086.61 -392.792C1115.25 -327.373 1153.94 -247.834 1220.21 -234.012C1230.26 -231.913 1239.92 -233.052 1249.96 -232.536C1255.12 -232.276 1261 -231.449 1263.61 -225.324C1270.41 -209.422 1251.79 -180.348 1245.52 -168.167C1228.2 -134.507 1208.74 -102.494 1190.59 -69.4826C1176.18 -43.2706 1157.91 -14.1455 1152.34 16.926C1145.57 54.6316 1189.77 81.4606 1205.31 108.01C1232.26 154.048 1181.21 180.279 1156.04 202.229C1127.13 227.43 1103.28 273.404 1129.19 312.395C1139.1 327.304 1151.29 336.19 1155.72 355.647C1162.64 386.076 1157.41 420.849 1151.79 450.928C1143.33 496.146 1129.94 540.873 1111.73 581.74C1098.69 610.999 1077.05 656.878 1045.37 653.437C1024.04 651.141 1002.35 642.751 981.582 635.335C950.484 624.235 919.776 611.584 889.233 598.443C818.726 568.192 748.997 534.837 680.638 498.149C633.995 473.108 503.887 370.772 494.098 367.121C464.908 356.245 431.72 358.159 401.626 359.845C361.594 362.084 321.763 367.884 281.964 373.259C263.019 375.803 243.979 378.914 224.934 380.167C211.378 381.057 193.576 381.821 181.702 372.337C158.526 353.834 184.347 311.498 195.025 293.586C227.737 238.675 269.118 191.124 307.917 142.503C326.957 118.632 346.288 94.7987 363.572 69.0129C370.543 58.6006 388.018 37.6934 380.375 23.4329Z" stroke="black"/>
<path fill-rule="evenodd" clip-rule="evenodd" d="M397.483 11.5916C363.713 -34.612 317.103 -68.9752 276.876 -107.563C256.686 -126.936 236.369 -146.838 218.955 -169.914C209.897 -181.914 198.585 -197.088 196.84 -213.815C192.176 -258.561 262.212 -252.511 283.174 -254.209C323.703 -257.505 369.487 -260.005 406.256 -282.84C428.72 -296.799 439.783 -319.71 435.584 -349.823C433.722 -363.184 430.824 -374.535 435.584 -387.654C440.407 -400.945 450.454 -410.323 460.628 -417.353C489.867 -437.573 526.201 -444.037 559.12 -448.854C597.737 -454.463 636.644 -456.654 675.528 -455.407C709.584 -454.332 743.475 -466.426 776.727 -474.398C820.777 -484.954 865.626 -494.173 910.702 -492.779C946.302 -491.672 982.182 -482.975 1012.62 -459.86C1043.54 -436.32 1062.13 -401.085 1078.9 -363.063C1104.24 -305.586 1135.82 -228.563 1191.41 -206.733C1199.5 -203.552 1207.03 -203.202 1215.37 -202.649C1219.42 -202.381 1224.65 -202.299 1226.66 -197.215C1231.5 -184.974 1213.63 -161.242 1208.64 -152.971C1192.72 -126.567 1175.47 -101.353 1159.15 -75.2994C1143.92 -50.976 1127.34 -25.6283 1117.88 2.87515C1102.82 48.2707 1150.95 74.8145 1149.6 118.072C1148.76 144.928 1127.39 164.187 1110.47 177.51C1089.64 193.893 1059.64 204.664 1049.21 234.561C1041.44 256.829 1053.63 269.79 1063.02 286.688C1078.92 315.319 1080.01 354.129 1078.35 387.271C1076.12 432.056 1067.4 477.502 1052.56 518.667C1045.83 537.327 1037.59 556.739 1025.46 571.232C1014.1 584.816 1003.34 588.296 988.152 585.516C941.659 576.99 894.716 553.227 850.132 532.002C794.114 505.331 738.869 475.886 685.274 442.757C648.728 420.164 611.356 396.261 579.279 365.047C570.918 356.91 562.356 348.066 556.243 337.332C551.621 329.265 549.66 322.604 541.87 317.997C518.782 304.35 486.667 307.919 461.929 309.338C422.374 311.597 383.009 317.609 343.697 323.023C320.757 326.205 277.542 336.213 259.224 312.207C243.413 291.479 262.492 256.136 272.238 237.876C296.892 191.698 328.605 151.169 358.028 109.439C371.513 90.3132 385.526 71.0416 396.663 49.7786C399.508 44.3578 404.067 37.1747 404.849 30.5896C405.727 23.0439 401.629 17.2859 397.483 11.5916Z" stroke="black"/>
<path fill-rule="evenodd" clip-rule="evenodd" d="M400.385 22.3476C369.18 -18.5048 331.586 -52.0667 298.086 -90.2958C283.066 -107.437 267.897 -125.418 256.452 -146.328C250.296 -157.573 243.758 -171.727 245.456 -185.703C250.327 -225.817 307.929 -222.194 331.2 -224.543C365.779 -227.995 405.504 -231.471 436.08 -253.101C456.109 -267.268 463.619 -288.191 459.88 -315.175C455.866 -344.121 464.841 -365.133 485.267 -381.28C510.876 -401.509 543.202 -409.755 572.936 -415.613C608.76 -422.637 645.038 -425.75 681.328 -424.915C716.621 -424.1 750.813 -431.219 785.874 -435.848C832.358 -441.98 880.334 -445.004 926.295 -432.435C966.311 -421.49 1002.46 -397.37 1029.55 -360.071C1057.85 -321.141 1071.86 -272.094 1094.84 -229.026C1109.18 -202.162 1129.16 -166.627 1155.95 -156.184C1164.88 -152.702 1181.16 -157.401 1174.02 -140.266C1169.95 -130.467 1162.31 -121.871 1156.28 -113.861C1146.54 -100.916 1136.48 -88.3284 1126.57 -75.562C1105.46 -48.3482 1082.85 -20.5551 1067.02 11.6697C1047.08 52.2419 1076.72 83.467 1073.11 124.606C1071.17 146.745 1058.38 164.414 1044.85 178.295C1036.1 187.285 1026.52 195.073 1016.74 202.338C1006.53 209.927 994.443 215.709 985.536 225.521C972.843 239.484 978.354 256.014 980.734 274.065C984.923 305.788 985.843 338.013 983.474 370.007C980.575 409.223 973.779 449.56 959.462 485.198C953.893 499.072 946.837 513.78 936.36 523.083C925.882 532.385 915.045 531.749 903.04 528.947C867.429 520.67 831.893 501.409 798.112 483.154C755.833 460.301 714.383 434.762 674.801 405.708C647.478 385.652 620.066 363.984 597.207 336.789C590.559 328.875 584.233 320.4 579.119 310.938C575.607 304.45 573.724 296.077 568.636 291.199C552.717 275.975 520.756 280.521 502.086 281.407C464.825 283.17 428.152 291.556 390.939 293.593C370.629 294.708 338.822 297.509 323.907 276.695C309.881 257.128 322.585 226.31 330.968 207.457C347.443 170.387 369.577 137.36 389.416 102.9C397.571 88.7201 406.509 73.8843 411.793 57.6923C416.49 43.2641 408.382 32.8218 400.385 22.3476Z" stroke="black"/>
<path fill-rule="evenodd" clip-rule="evenodd" d="M408.06 23.016C383.222 -12.9329 353.279 -44.8445 328.261 -81.3784C313.617 -102.774 288.399 -138.742 299.724 -168.905C312.148 -202.05 355.456 -202.953 380.489 -205.623C410.284 -208.802 445.274 -213.145 470.773 -233.84C478.837 -240.383 485.707 -249.043 488.619 -260.449C491.737 -272.657 488.328 -283.339 487.884 -295.559C486.954 -321.195 499.669 -341.776 516.496 -355.911C540.277 -375.894 570.013 -385.342 598.102 -391.929C629.924 -399.359 662.274 -403.022 694.689 -402.865C725.668 -402.738 756.319 -403.565 787.33 -404.519C827.884 -405.79 869.01 -403.737 908.349 -390.772C947.101 -377.992 982.334 -354.041 1010.01 -318.811C1037.01 -284.432 1055.23 -242.411 1071.18 -199.608C1080.23 -175.314 1095.53 -139.009 1117.12 -126.737C1126.72 -121.276 1136.14 -121.651 1125.93 -107.447C1113.08 -89.5613 1095.75 -75.211 1080.86 -59.9133C1059.37 -37.8378 1037.35 -15.33 1019.32 10.9165C1007.81 27.6765 1002.67 43.9407 1003.47 65.6411C1004.08 82.1722 1006.86 98.5318 1005.45 115.127C1002.16 154.077 976.674 180.787 954.14 205.66C939.644 221.657 926.406 233.859 918.944 256.614C910.119 283.509 906.414 312.77 900.517 340.695C894.038 371.36 886.555 403.259 872.413 430.268C859.825 454.315 844.515 465.098 821.601 458.619C785.861 448.522 750.633 423.649 718.904 400.639C686.609 377.228 654.869 350.906 628.108 318.727C613.66 301.35 603.798 280.947 590.967 262.279C574.828 238.843 538.316 247.719 516.617 249.703C480.597 252.997 367.257 277.641 377.715 197.821C382.08 164.504 399.271 133.756 411.843 104.356C417.054 92.1545 424.595 77.5117 425.774 63.5302C427.058 48.3024 415.527 33.8376 408.06 23.016Z" stroke="black"/>
<path fill-rule="evenodd" clip-rule="evenodd" d="M421.174 26.0683C402.193 -6.50877 379.478 -37.2855 363.191 -72.4707C352.626 -95.2575 342.25 -125.703 355.88 -149.813C371.263 -177.021 405.183 -183.364 430.107 -186.831C455.786 -190.4 486.441 -193.402 507.429 -214.032C514.106 -220.604 519.611 -229.465 520.636 -240.076C521.624 -250.255 518.834 -260.433 519.759 -270.796C521.83 -294.066 533.552 -313.239 548.666 -327.146C593.373 -368.285 659.914 -377.433 713.855 -378.508C740.855 -379.042 768.641 -376.237 795.816 -374.227C831.077 -371.619 866.392 -366.02 900.022 -352.528C971.523 -323.85 1019.45 -260.248 1052.92 -181.105C1063.45 -156.194 1071.51 -129.24 1088.02 -109.221C1096.53 -98.8836 1094.67 -91.4597 1085.97 -82.0321C1072.37 -67.2989 1055.78 -56.0391 1040.68 -43.7424C1019.2 -26.2547 997.27 -8.50625 978.279 12.442C965.189 26.8826 955.896 40.7951 953.075 62.4495C951.063 77.8888 951.533 93.6206 950.323 109.155C948.02 138.666 940.133 167.954 926.171 192.433C915.077 211.836 901.87 229.47 888.22 246.283C870.476 268.173 855.467 290.412 841.991 316.393C824.125 350.783 799.022 414.219 756.94 397.431C710.527 378.907 667.024 331.838 637.246 286.233C627.245 270.921 619.036 252.142 605.55 240.85C585.359 223.973 564.873 224.565 540.858 224.635C504.904 224.73 426.668 234.126 425.822 169.29C425.49 143.603 434.724 119.315 439.145 94.6067C444.132 66.9343 434.137 48.2698 421.174 26.0683Z" stroke="black"/>
<path fill-rule="evenodd" clip-rule="evenodd" d="M435.312 28.973C416.538 -13.4855 374.438 -83.2538 406.458 -130.467C423.372 -155.419 453.288 -164.795 478.384 -170.383C498.58 -174.903 522.937 -176.6 538.196 -195.76C549.412 -209.847 544.433 -230.349 548.73 -247.983C554.063 -269.845 566.305 -287.733 581.348 -301.179C623.384 -338.755 681.832 -350.287 732.399 -352.74C784.917 -355.283 842.784 -343.389 892.204 -320.51C953.823 -291.974 999.988 -237.939 1032.27 -169.512C1038.23 -156.881 1043.64 -143.919 1049.36 -131.135C1053.2 -122.559 1058.9 -114.263 1061.93 -105.243C1066.97 -90.202 1061.03 -77.9075 1051.51 -68.105C1037.81 -53.9924 1020.98 -43.9484 1005.36 -33.3576C983.999 -18.8636 962.164 -4.63023 942.295 12.3748C928.944 23.8174 914.969 36.1437 910.191 55.9966C906.93 69.5371 906.253 83.8785 906.369 97.9021C906.623 127.971 905.312 152.286 893.652 179.825C874.465 225.036 844.961 265.689 813.792 299.515C789.33 326.062 750.624 367.3 714.983 349.551C683.005 333.658 664.3 295.618 643.231 264.863C632.988 249.911 621.481 236.256 607.961 225.621C590.915 212.214 574.868 206.588 554.671 204.395C520.68 200.701 469.425 199.741 458.917 150.665C455.038 132.554 457.252 113.795 455.217 95.4483C452.559 71.1899 444.784 50.3898 435.312 28.973Z" stroke="black"/>
<path fill-rule="evenodd" clip-rule="evenodd" d="M454.833 30.5453C441.464 -15.9125 423.901 -74.4621 456.19 -115.752C471.831 -135.755 493.831 -146.936 515.123 -155.292C530.373 -161.281 554.586 -163.044 563.936 -181.455C570.802 -195.004 571.753 -213.695 577.965 -228.212C586.501 -248.17 599.432 -264.608 614.602 -277.476C654.123 -311.009 705.597 -323.966 752.54 -327.676C854.538 -335.727 958.322 -271.609 1012.9 -166.118C1029.18 -134.673 1050.18 -101.204 1023.88 -69.0781C995.17 -34.0311 951.915 -17.6117 917.644 7.29093C904.55 16.7989 887.863 28.2288 880.558 45.4436C876.163 55.7916 875.862 68.7743 875.662 80.166C875.133 109.18 873.131 135.273 863.439 162.345C848.469 204.183 824.599 242.781 797.549 274.398C773.959 301.967 740.317 334.367 706.057 314.492C679.789 299.218 663.129 266.799 642.719 242.902C620.006 216.287 591.915 198.353 561.067 189.59C531.059 181.088 498.146 175.354 482.332 139.231C476.907 126.84 471.239 110.796 469.205 97.0818C465.922 74.4694 461.116 52.217 454.833 30.5453Z" stroke="black"/>
<path fill-rule="evenodd" clip-rule="evenodd" d="M476.601 30.8725C470.416 -16.04 469.728 -64.9567 498.464 -101.931C511.876 -119.18 528.829 -131.435 545.972 -142.538C558.585 -150.707 571.611 -157.598 581.031 -170.992C589.758 -183.393 596.393 -197.792 604.819 -210.517C615.934 -227.381 629.234 -241.98 644.207 -253.752C681.739 -283.205 727.397 -296.981 771.077 -301.759C792.222 -304.081 815.159 -305.29 836.162 -298.959C856.445 -292.851 876.501 -283.192 895.151 -271.93C934.798 -248.013 969.159 -212.986 994.068 -168.701C1011.15 -138.326 1020.38 -108.79 998.265 -77.9749C973.33 -43.2407 934.232 -24.0761 902.007 -1.53295C879.905 13.9285 855.134 29.0846 851.005 61.9418C847.717 88.0863 845.048 112.901 836.542 137.614C823.883 174.066 805.271 207.086 781.808 234.716C760.351 259.887 733.206 281.246 702.514 267.802C678.197 257.132 659.331 233.227 638.085 216.136C614.408 197.048 588.394 186.524 561.001 178.062C536.383 170.426 513.203 158.694 497.291 133.783C494.035 128.693 490.614 123.151 488.103 117.457C484.9 110.19 485.148 102.988 484.519 94.8435C482.881 73.3502 479.397 52.1049 476.601 30.8725Z" stroke="black"/>
<path fill-rule="evenodd" clip-rule="evenodd" d="M500.602 27.0382C501.13 -17.5217 510.033 -59.6345 534.418 -94.3608C544.843 -109.216 557.292 -121.452 568.763 -135.065C577.999 -146.039 586.728 -156.236 597.348 -165.279C622.541 -186.693 643.016 -214.402 669.789 -233.47C705.529 -258.962 746.468 -273.053 787.089 -278.687C806.925 -281.44 827.415 -282.402 847.483 -279.292C864.719 -276.622 881.226 -267.247 896.538 -257.656C926.55 -238.868 955.69 -212.165 975.177 -178.382C1018.14 -103.901 933.435 -49.75 889.96 -18.038C869.966 -3.45024 839.415 13.4446 831.225 42.3397C825.37 62.9818 821.804 83.9744 814.264 103.979C794.011 157.703 752.898 220.892 698.11 212.479C674.666 208.885 653.298 194.284 631.413 184.483C608.877 174.388 585.618 168.761 562.195 162.585C540.304 156.818 522.857 148.609 508.717 126.603C501.96 116.094 502.557 103.514 501.954 90.6214C500.971 69.444 500.364 48.1455 500.602 27.0382Z" stroke="black"/>
<path fill-rule="evenodd" clip-rule="evenodd" d="M522.457 21.3305C531.259 -45.9286 563.949 -119.357 612.016 -158.417C668.557 -204.365 729.812 -243.057 797.366 -254.18C828.686 -259.338 862.995 -261.875 892.549 -245.01C915.04 -232.182 941.166 -213.008 953.544 -186.043C983.827 -120.088 916.469 -67.583 878.092 -37.0697C857.43 -20.6428 831.13 -4.63575 815.557 19.3527C806.523 33.2611 801.91 51.6594 794.616 66.9352C772.51 113.227 736.122 150.564 690.795 157.242C669.838 160.326 648.727 156.51 627.928 153.477C606.637 150.373 585.081 148.688 563.922 144.357C547.033 140.897 527.127 135.04 520.907 113.284C513.062 85.8677 518.865 48.7976 522.457 21.3305Z" stroke="black"/>
<path fill-rule="evenodd" clip-rule="evenodd" d="M543.888 10.5258C556.725 -52.7091 583.908 -114.391 629.606 -152.141C653.84 -172.159 681.971 -185.977 708.98 -199.629C739.595 -215.102 771.582 -227.113 804.252 -233.07C844.929 -240.492 910.809 -247.181 932.061 -191.393C953.155 -136.019 899.852 -87.0093 868.331 -59.0803C848.122 -41.1887 826.494 -24.7673 807.186 -5.20811C796.716 5.39576 788.65 17.6481 779.79 30.0851C755.302 64.5445 720.392 91.8243 684.81 106.387C650.323 120.504 607.66 126.755 571.257 122.089C555.549 120.084 544.322 113.318 539.572 94.0838C532.989 67.345 538.581 36.6473 543.888 10.5258Z" stroke="black"/>
<path fill-rule="evenodd" clip-rule="evenodd" d="M565.182 -6.50546C577.935 -62.1815 605.441 -113.034 645.563 -146.45C690.538 -183.909 748.45 -204.724 801.678 -215.309C829.971 -220.932 891.284 -236.175 905.706 -192.548C920.127 -148.922 878.437 -105.929 854.442 -82.2613C825.319 -53.5803 793.921 -25.8881 762.56 -0.154415C735.312 22.2199 706.237 45.095 676.724 62.3733C660.078 72.1752 642.739 80.1783 624.911 86.2879C611.709 90.7754 594.922 97.4687 581.082 94.1284C546.172 85.6921 559.083 20.1156 565.182 -6.50546Z" stroke="black"/>
<path fill-rule="evenodd" clip-rule="evenodd" d="M591.469 -23.1777C619.449 -128.468 708.101 -180.251 793.458 -198.301C813.292 -202.49 868.895 -217.596 879.981 -185.433C890.725 -154.248 856.557 -117.265 840.56 -99.7435C790.992 -45.4487 729.751 -5.19176 671.721 34.6901C653.607 47.1385 620.938 74.1523 598.469 61.6912C574.073 48.1366 585.672 -1.34537 591.469 -23.1777Z" stroke="black"/>
<path fill-rule="evenodd" clip-rule="evenodd" d="M620.131 -43.4432C644.465 -120.981 715.24 -165.453 780.311 -180.113C796.249 -183.7 836.727 -194.869 848.799 -173.231C859.97 -153.215 833.311 -124.212 823.337 -112.688C801.133 -87.0239 774.819 -65.8823 748.822 -45.5612C724.785 -26.7602 700.489 -7.4886 675.196 8.4121C661.875 16.7822 636.89 34.6419 621.752 21.7178C605.454 7.81427 614.728 -26.226 620.131 -43.4432Z" stroke="black"/>
<path fill-rule="evenodd" clip-rule="evenodd" d="M-162.265 86.7811C-162.935 37.1063 -184.865 -14.52 -174.035 -65.1355C-165.142 -106.706 -120.37 -110.177 -93.5114 -129.01C-72.1681 -143.973 -60.0555 -170.479 -48.513 -195.911C-38.1422 -218.743 -28.8269 -242.261 -17.9018 -264.718C-10.8296 -279.236 1.31459 -307.744 16.6518 -308.259C31.3346 -308.755 44.7983 -286.54 53.3272 -273.407C64.4475 -256.29 74.3064 -238.041 85.1047 -220.65C103.303 -191.315 125.137 -169.602 150.138 -149.052C178.588 -125.669 207.509 -103.085 236.899 -81.2997C258.538 -65.2118 280.325 -49.2447 301.125 -31.5677C314.171 -20.4759 342.967 0.334791 343.099 20.7831C343.162 30.5401 335.483 41.3459 330.305 49.1451C321.544 62.3473 311.559 74.418 301.542 86.228C282.885 108.227 263.436 129.229 244.198 150.484C219.229 178.071 195.379 205.206 173.429 236.524C150.734 268.941 129.053 302.426 106.928 335.454C91.9448 357.828 76.9769 382.955 55.3644 396.685C28.2946 413.847 6.07514 395.75 -21.3007 395.54C-44.8502 395.356 -43.1138 329.657 -46.1063 311.389C-49.1094 292.898 -55.7278 275.685 -58.2928 257.15C-61.4911 234.013 -61.5333 210.342 -62.3197 186.957C-63.275 158.353 -63.655 131.123 -89.0464 120.215C-103.497 114.018 -119.13 112.715 -134.087 109.003C-143.777 106.594 -162.054 102.475 -162.265 86.7811Z" stroke="black"/>
<path fill-rule="evenodd" clip-rule="evenodd" d="M-150.687 77.9441C-153.155 36.3044 -167.739 -16.9915 -153.948 -59.9744C-142.166 -96.706 -105.319 -101.468 -80.5077 -120.763C-60.0252 -136.678 -50.9073 -162.721 -40.6687 -188.306C-32.4546 -208.83 -24.4889 -229.551 -15.1648 -249.419C-8.29326 -264.061 2.19904 -288.78 16.4865 -291.81C29.331 -294.535 43.1057 -272.712 50.3155 -261.61C60.8342 -245.402 69.8306 -227.8 79.1231 -210.568C95.4509 -180.297 112.17 -153.077 136.067 -130.84C160.07 -108.509 186.329 -91.8106 212.869 -74.4315C233.632 -60.8338 254.289 -46.8415 274.015 -31.143C288.71 -19.4551 309.837 -4.49506 316.561 16.3471C321.883 32.8349 294.889 60.1958 286.928 69.853C270.543 89.7084 253.179 108.348 235.783 126.873C214.577 149.447 192.693 169.187 173.966 194.938C140.47 240.976 112.471 298.308 69.3708 332.525C43.3753 353.164 14.4462 358.441 -14.4671 355.354C-25.9161 354.131 -28.6647 334.671 -30.1077 323.32C-32.5074 304.464 -32.8087 285.283 -34.6535 266.351C-36.3819 248.628 -40.2194 231.79 -43.3116 214.411C-46.4408 196.803 -47.3182 178.762 -49.6228 161.033C-51.05 150.026 -52.4613 137.218 -58.7038 128.369C-65.163 119.208 -75.8192 115.37 -85.1327 112.454C-102.623 107.03 -148.943 107.329 -150.687 77.9441Z" stroke="black"/>
<path fill-rule="evenodd" clip-rule="evenodd" d="M-135.786 60.5131C-139.937 22.2909 -145.749 -25.3151 -128.837 -60.5301C-115.013 -89.3239 -85.5299 -95.5354 -64.4714 -114.297C-46.9561 -129.898 -40.3403 -154.712 -31.6461 -177.771C-24.5121 -196.685 -17.341 -215.682 -8.69439 -233.681C-2.13675 -247.33 6.31416 -265.838 19.3343 -270.6C30.4664 -274.668 43.0422 -256.441 49.2138 -247.369C59.7219 -231.907 68.2892 -214.582 76.7982 -197.487C90.7174 -169.513 103.526 -139.632 123.336 -116.878C142.586 -94.7979 165.453 -81.7647 188.749 -67.1103C206.592 -55.8827 224.324 -44.2228 241.136 -30.8336C254.045 -20.5596 270.042 -8.38473 276.769 8.71098C282.587 23.4544 267.652 40.9061 260.19 51.3072C247.868 68.4728 234.192 84.2207 220.707 100.032C206.153 117.09 190.034 132.825 175.951 150.302C146.336 187.081 122.675 227.802 86.1746 255.979C62.5354 274.232 30.7255 290.812 2.78149 287.831C-17.3145 285.682 -15.9924 232.138 -17.9227 215.029C-21.0957 187.056 -27.225 157.664 -36.961 131.897C-45.322 109.817 -65.1906 103.008 -83.4674 98.0549C-94.9168 94.9461 -106.916 93.2677 -117.99 88.4613C-130.809 82.892 -134.046 76.5344 -135.786 60.5131Z" stroke="black"/>
<path fill-rule="evenodd" clip-rule="evenodd" d="M-121.887 42.597C-124.358 10.2821 -123.803 -27.9308 -107.792 -55.8844C-93.7601 -80.3692 -68.7775 -86.8157 -51.0092 -106.104C-37.1418 -121.152 -31.6954 -145.688 -24.2377 -165.588C-15.1233 -189.92 -2.35153 -234.86 20.6409 -244.016C42.0295 -252.529 64.3974 -198.152 72.1409 -181.937C84.3993 -156.272 94.6516 -128.128 109.519 -104.427C122.323 -84.0229 139.477 -72.7433 157.685 -60.622C180.9 -45.1404 216.145 -26.7831 228.557 3.38939C237.809 25.8721 207.724 59.2965 197.45 74.8737C186.706 91.146 178.613 110.434 167.524 126.133C150.026 150.904 121.672 170.849 98.2614 186.069C75.5019 200.875 45.9463 217.262 20.1275 216.287C3.15839 215.649 -0.0702829 184.099 -3.69063 168.688C-8.87768 146.779 -15.7743 127.146 -30.5892 112.245C-45.6687 97.0759 -63.4423 89.9281 -82.1263 83.673C-91.717 80.4848 -102.657 77.9981 -111.237 71.5581C-120.717 64.5505 -120.934 55.018 -121.887 42.597Z" stroke="black"/>
<path fill-rule="evenodd" clip-rule="evenodd" d="M-104.952 23.9708C-104.815 -3.9469 -99.5125 -33.7173 -83.7908 -55.252C-70.6964 -73.1891 -50.2001 -79.1851 -37.6649 -97.522C-27.736 -112.039 -22.6818 -132.419 -16.0344 -149.278C-7.90443 -169.937 3.59142 -206.027 23.8081 -213.196C43.5394 -220.176 60.9916 -180.425 68.557 -164.696C79.6361 -141.632 88.6048 -117.185 99.7841 -94.1846C108.542 -76.1396 119.252 -64.5093 133.512 -52.879C150.252 -39.2184 173.608 -24.0857 182.55 -1.48507C188.997 14.8785 173.391 41.026 167.725 55.4417C163.927 65.124 160.45 74.9587 158.54 85.4532C157.052 93.6255 156.905 101.189 152.594 108.206C141.742 125.858 117.949 128.161 101.805 133.979C80.3641 141.701 57.6151 150.476 35.1773 152.151C21.3865 153.198 14.3487 137.9 6.47727 127.139C-2.82387 114.418 -15.9922 105.268 -27.4933 95.6686C-42.6716 82.9787 -59.19 75.0856 -76.2781 67.0021C-83.986 63.3538 -93.0392 59.7752 -99.0113 52.523C-105.247 45.0042 -104.999 34.0466 -104.952 23.9708Z" stroke="black"/>
<path fill-rule="evenodd" clip-rule="evenodd" d="M-87.1651 7.39732C-84.44 -16.0498 -75.948 -38.4597 -61.6044 -55.0349C-50.6091 -67.7606 -36.0068 -74.9252 -27.182 -90.2151C-18.9593 -104.468 -13.2293 -120.674 -6.43774 -135.913C0.749882 -152.024 11.4283 -178.951 28.0058 -183.335C45.8718 -188.057 59.6345 -160.894 67.2551 -145.839C76.8826 -126.814 84.197 -106.345 92.8052 -86.6647C99.2903 -71.9961 107.563 -58.5807 117.347 -46.865C127.608 -34.5148 141.524 -22.6862 146.715 -5.70378C151.304 9.33799 142.717 27.5357 141.202 42.7875C139.58 59.0827 142.421 76.1988 133.433 90.1907C114.896 119.046 68.3747 113.695 41.779 114.312C15.537 114.949 -5.56107 97.2916 -26.7965 80.4937C-40.8232 69.4033 -55.4308 60.0117 -69.8113 49.6784C-84.4717 39.1352 -89.5627 28.032 -87.1651 7.39732Z" stroke="black"/>
<path fill-rule="evenodd" clip-rule="evenodd" d="M-70.6398 -6.02276C-62.5812 -39.9908 -37.412 -58.0448 -19.4189 -83.7151C-4.69673 -104.73 6.34223 -148.251 31.1363 -154.007C59.2859 -160.541 76.1376 -102.877 85.9242 -80.6264C96.7835 -55.9496 116.124 -35.877 124.167 -9.75453C128.394 3.95624 124.764 16.75 122.513 30.4544C120.045 45.5025 118.19 60.8881 109.672 73.0005C92.9048 96.8367 60.1578 96.6711 36.5739 97.3271C12.1603 98.0085 -9.43678 81.674 -28.8884 65.3713C-49.5184 48.1071 -78.894 28.8114 -70.6398 -6.02276Z" stroke="black"/>
<path fill-rule="evenodd" clip-rule="evenodd" d="M-57.1433 -15.2338C-48.0628 -39.4351 -28.9809 -59.11 -13.4971 -77.6835C-0.573604 -93.1677 13.3293 -124.339 33.034 -126.561C56.1931 -129.181 70.2291 -95.8961 79.3415 -75.4868C88.3103 -55.432 101.234 -34.2568 106.2 -12.2459C111.379 10.6829 97.5878 41.5628 84.4354 57.7876C69.766 75.88 45.7659 82.5649 25.1723 81.8432C3.61006 81.1089 -16.1745 66.1564 -32.5045 50.6469C-49.963 34.0675 -67.7036 12.8606 -57.1433 -15.2338Z" stroke="black"/>
<path fill-rule="evenodd" clip-rule="evenodd" d="M-44.6179 -19.79C-35.944 -39.919 -20.9087 -56.9468 -7.04556 -72.1354C3.65284 -83.8615 19.4394 -103.8 34.8743 -104.288C51.8543 -104.828 66.2449 -88.0915 72.9953 -70.9368C79.6499 -54.0168 86.6614 -32.8035 87.6577 -14.2409C89.8208 26.1819 45.7805 71.4625 12.7103 67.7779C-18.6444 64.2835 -61.9122 20.3157 -44.6179 -19.79Z" stroke="black"/>
<path fill-rule="evenodd" clip-rule="evenodd" d="M-33.0364 -22.0094C-21.0704 -48.2358 7.99523 -85.6252 34.9041 -86.5131C65.7909 -87.5279 73.5446 -45.9208 69.5187 -15.7684C65.4288 15.0056 29.8184 59.5493 1.42379 53.5302C-26.2892 47.657 -47.2177 9.09439 -33.0364 -22.0094Z" stroke="black"/>
<path fill-rule="evenodd" clip-rule="evenodd" d="M-20.8067 -26.2501C-10.6755 -48.2091 10.9437 -75.6371 33.4921 -76.4673C60.3591 -77.4496 59.8523 -42.3217 53.7598 -20.4578C47.4245 2.24261 19.5228 41.0145 -4.00231 34.8926C-26.878 28.9165 -30.5156 -5.20377 -20.8067 -26.2501Z" stroke="black"/>
<path fill-rule="evenodd" clip-rule="evenodd" d="M-10.1549 -28.7774C-3.46759 -44.4461 13.2692 -64.2496 29.18 -64.8832C48.6277 -65.6449 44.8472 -37.783 39.8225 -24.3353C33.85 -8.33379 13.8304 19.4705 -2.96987 14.9645C-19.5108 10.5288 -15.672 -15.8673 -10.1549 -28.7774Z" stroke="black"/>
</g>
</g>
<defs>
<clipPath id="clip0_1346_14964">
<rect width="1128" height="336" rx="30" fill="white"/>
</clipPath>
</defs>
</svg>
