<svg width="14" height="14" viewBox="0 0 14 14" fill="none" xmlns="http://www.w3.org/2000/svg">
<path d="M13.7074 6.55833L7.87409 0.724997C7.71332 0.568693 7.48138 0.510032 7.26563 0.57111C7.04988 0.632189 6.88311 0.803728 6.82813 1.02111C6.77315 1.23849 6.83832 1.46869 6.99909 1.625L11.7574 6.375H0.732422C0.387244 6.375 0.107422 6.65482 0.107422 7C0.107422 7.34517 0.387244 7.625 0.732422 7.625H11.7491L6.99909 12.375C6.87997 12.4911 6.81278 12.6503 6.81278 12.8167C6.81278 12.983 6.87997 13.1423 6.99909 13.2583C7.11396 13.3789 7.2743 13.4454 7.44076 13.4417C7.60664 13.4424 7.76585 13.3764 7.88242 13.2583L13.7158 7.425C13.9595 7.18098 13.9595 6.78568 13.7158 6.54166L13.7074 6.55833Z" fill="#00C1DD"/>
</svg>
