<svg width="20" height="20" viewBox="0 0 20 20" fill="none" xmlns="http://www.w3.org/2000/svg">
<path fill-rule="evenodd" clip-rule="evenodd" d="M14.4462 2.33171H14.5369C17.0423 2.33171 19.0733 4.36272 19.0733 6.8681V15.0336C19.0733 17.539 17.0423 19.57 14.5369 19.57H5.46413C4.261 19.57 3.10715 19.0921 2.25641 18.2413C1.40567 17.3906 0.927734 16.2367 0.927734 15.0336V6.8681C0.927734 4.36272 2.95875 2.33171 5.46413 2.33171H5.55486V0.680459C5.55486 0.304652 5.85951 0 6.23531 0C6.61112 0 6.91577 0.304652 6.91577 0.680459V2.33171H13.0853V0.680459C13.0853 0.304652 13.3899 0 13.7657 0C14.1415 0 14.4462 0.304652 14.4462 0.680459V2.33171ZM5.91777 7.85695H14.0833C14.4591 7.85695 14.7637 7.5523 14.7637 7.17649C14.7637 6.80069 14.4591 6.49604 14.0833 6.49604H5.91777C5.54196 6.49604 5.23731 6.80069 5.23731 7.17649C5.23731 7.5523 5.54196 7.85695 5.91777 7.85695Z" fill="#DDDDDD"/>
</svg>
