<svg width="40" height="40" viewBox="0 0 40 40" fill="none" xmlns="http://www.w3.org/2000/svg">
<path d="M20 40C16.5001 40 13.0662 39.0737 10.025 37.3156L2.23273 40L3.83366 31.7487C1.32251 28.3075 0 24.2613 0 20.0009C0 8.97238 8.97198 0 20 0C31.028 0 40 8.97238 40 20.0009C40 31.0294 31.0298 40 20 40Z" fill="#00C1DD"/>
<path d="M20 33.066C17.7137 33.066 15.4703 32.4609 13.4838 31.3115L8.39369 33.066L9.43956 27.674C7.79937 25.4269 6.93555 22.7817 6.93555 19.9992C6.93555 12.7938 12.7967 6.93237 20.0018 6.93237C27.2068 6.93237 33.068 12.7938 33.068 19.9992C33.068 27.2046 27.2068 33.066 20.0018 33.066H20ZM13.7176 29.175L14.1121 29.4213C15.8861 30.5333 17.9225 31.1223 20 31.1223C26.1342 31.1223 31.1226 26.1337 31.1226 19.9992C31.1226 13.8647 26.1342 8.87785 20 8.87785C13.8658 8.87785 8.87915 13.8665 8.87915 19.9992C8.87915 22.4944 9.69657 24.8593 11.2422 26.8351L11.5152 27.1849L10.9441 30.1299L13.7194 29.1732L13.7176 29.175Z" fill="white"/>
<path d="M13.4041 14.9802C13.4041 14.9802 14.1716 13.6398 14.7962 13.563C15.4209 13.4863 16.2258 13.4863 16.4418 13.895C16.6595 14.3037 17.6286 16.6776 17.6286 16.6776C17.6286 16.6776 17.7946 17.0863 17.5394 17.4825C17.2842 17.8787 16.7095 18.4517 16.7095 18.4517C16.7095 18.4517 16.39 18.8604 16.7095 19.2941C17.029 19.7278 17.5233 20.5257 18.5478 21.5484C19.5705 22.5729 21.5337 23.3011 21.5337 23.3011C21.5337 23.3011 21.8139 23.3386 21.9942 23.1601C22.1726 22.9816 23.1435 21.7697 23.1435 21.7697C23.1435 21.7697 23.4541 21.3681 23.9735 21.6037C24.491 21.8393 26.7309 22.9566 26.7309 22.9566C26.7309 22.9566 26.9933 23.053 26.9933 23.4474C26.9933 23.8419 26.8326 24.8111 26.506 25.1377C26.1794 25.4661 25.221 26.4745 23.7825 26.4745C22.344 26.4745 18.919 25.3037 17.095 23.4796C15.2692 21.6537 13.6486 19.8028 13.2667 18.1179C12.883 16.433 12.9347 15.6709 13.4059 14.9784L13.4041 14.9802Z" fill="white"/>
</svg>